<svg width="24" height="24" viewBox="0 0 24 24" fill="none" xmlns="http://www.w3.org/2000/svg">
<path d="M1.94434 4.26411C1.94434 3.19058 2.8146 2.32031 3.88813 2.32031H19.4385C20.5121 2.32031 21.3823 3.19058 21.3823 4.26411V5.05865C21.3823 5.79717 21.1021 6.50818 20.5982 7.04808L15.1018 12.937C14.7659 13.297 14.579 13.771 14.579 14.2633V18.2419C14.579 18.6101 14.371 18.9466 14.0418 19.1112L10.1542 21.055C9.50796 21.3781 8.74763 20.9082 8.74763 20.1857V14.2633C8.74763 13.771 8.56079 13.297 8.22486 12.937L2.7285 7.04808C2.22459 6.50818 1.94434 5.79717 1.94434 5.05865V4.26411Z" stroke="#717171" stroke-width="1.45785"/>
</svg>
