<svg xmlns="http://www.w3.org/2000/svg" width="430" height="430" style="width:100%;height:100%;transform:translate3d(0,0,0);content-visibility:visible" viewBox="0 0 430 430"><defs><clipPath id="f"><path d="M0 0h430v430H0z"/></clipPath><clipPath id="j"><path d="M0 0h430v430H0z"/></clipPath><clipPath id="g"><path d="M0 0h430v430H0z"/></clipPath><mask id="k" mask-type="alpha"><use xmlns:ns1="http://www.w3.org/1999/xlink" ns1:href="#a"/></mask><mask id="i" mask-type="alpha"><g filter="url(#b)"><path fill="#fff" d="M0 0h430v430H0z" opacity="0"/><use xmlns:ns2="http://www.w3.org/1999/xlink" ns2:href="#c"/></g></mask><mask id="h" mask-type="alpha"><g filter="url(#d)"><path fill="#fff" d="M0 0h430v430H0z" opacity="0"/><use xmlns:ns3="http://www.w3.org/1999/xlink" ns3:href="#e"/></g></mask><filter id="b" width="100%" height="100%" x="0%" y="0%" filterUnits="objectBoundingBox"><feComponentTransfer in="SourceGraphic"><feFuncA tableValues="1.0 0.0" type="table"/></feComponentTransfer></filter><filter id="d" width="100%" height="100%" x="0%" y="0%" filterUnits="objectBoundingBox"><feComponentTransfer in="SourceGraphic"><feFuncA tableValues="1.0 0.0" type="table"/></feComponentTransfer></filter><g id="c" style="display:none"><path fill-opacity="0"/><path/></g><g id="e" style="display:block"><path fill-opacity="0" stroke="#121331" stroke-width="0" d="M215.5 374.5V567H54V374.5h161.5z"/><path fill="red" d="M215.5 374.5V567H54V374.5h161.5z"/></g><path id="a" style="display:none"/></defs><g clip-path="url(#f)"><g clip-path="url(#g)" style="display:block"><g style="display:block"><path fill="#EBE6EE" d="M352.71 54.88H77.29c-12.377 0-22.41 10.033-22.41 22.41v275.42c0 12.377 10.033 22.41 22.41 22.41h275.42c12.377 0 22.41-10.033 22.41-22.41V77.29c0-12.377-10.033-22.41-22.41-22.41z" class="tertiary"/><path fill="#393346" d="M375.11 105.955v-29a22.397 22.397 0 0 0-13.819-20.701 22.389 22.389 0 0 0-8.571-1.709H77.29A22.404 22.404 0 0 0 56.592 68.38a22.41 22.41 0 0 0-1.702 8.575v29h320.22z" class="secondary"/><path fill="none" stroke="#07A889" stroke-linecap="round" stroke-linejoin="round" stroke-width="15" d="M143.003 80.562h-.13" class="septenary"/><path fill="none" stroke="#FFC638" stroke-linecap="round" stroke-linejoin="round" stroke-width="15" d="M114.877 80.562h-.13" class="quaternary"/><path fill="none" stroke="#F14B00" stroke-linecap="round" stroke-linejoin="round" stroke-width="15" d="M86.877 80.562h-.13" class="senary"/></g><g style="display:block"><path fill="#4AB3FC" d="M375.122 106.257v134.43h-160.12v-134.43h160.12z" class="quinary"/><path fill="#F18AA8" d="M375.122 240.687v112.02c0 12.38-10.04 22.41-22.41 22.41h-137.71v-134.43h160.12z" class="octonary"/></g><path class="nonary" style="display:none"/><path fill="none" class="primary" style="display:none"/><path fill="none" class="primary" style="display:none"/><path fill="none" class="primary" style="display:none"/><path fill="none" stroke="#121330" stroke-linecap="round" stroke-linejoin="round" stroke-width="12" d="M-.068 0h.136" class="primary" style="display:block" transform="translate(348.931 265.91)"/><path fill="none" stroke="#121330" stroke-linecap="round" stroke-linejoin="round" stroke-width="12" d="M348.864 130.909H349m-.136 0H349m-162.086 0h.136m-.136 0h.136" class="primary" style="display:block"/><path fill="none" class="primary" style="display:none"/><path fill="#FFC638" d="M0 22.5c12.426 0 22.5-10.074 22.5-22.5S12.426-22.5 0-22.5-22.5-12.426-22.5 0-12.426 22.5 0 22.5z" class="quaternary" style="display:block" transform="translate(295.5 282.5)"/><path fill="none" stroke="#121330" stroke-linecap="round" stroke-linejoin="round" stroke-width="7" d="M0 22.5c12.426 0 22.5-10.074 22.5-22.5S12.426-22.5 0-22.5-22.5-12.426-22.5 0-12.426 22.5 0 22.5z" class="primary" style="display:block" transform="translate(295.5 282.5)"/><path fill="#393346" d="M-15-20c-16.569 0-30 13.431-30 30v7a3 3 0 0 0 3 3h84a3 3 0 0 0 3-3v-7c0-16.569-13.431-30-30-30h-30z" class="secondary" style="display:block" transform="translate(295 335)"/><path fill="none" stroke="#121330" stroke-linecap="round" stroke-linejoin="round" stroke-width="7" d="M-15-20c-16.569 0-30 13.431-30 30v7a3 3 0 0 0 3 3h84a3 3 0 0 0 3-3v-7c0-16.569-13.431-30-30-30h-30z" class="primary" style="display:block" transform="translate(295 335)"/><g opacity=".5" style="mix-blend-mode:multiply;display:block"><path fill="#FFC638" d="M288 277.5c0-7.06 3.251-13.36 8.338-17.485-.278-.01-.557-.015-.838-.015-12.426 0-22.5 10.074-22.5 22.5s10.074 22.5 22.5 22.5a22.406 22.406 0 0 0 14.162-5.015C297.624 299.544 288 289.646 288 277.5z" class="quaternary" opacity="1"/></g><g opacity=".5" style="mix-blend-mode:multiply;display:block"><path fill="#393346" d="M250 345c0-16.569 13.431-30 30-30h20c-16.569 0-30 13.431-30 30v10h-17a3 3 0 0 1-3-3v-7z" class="secondary" opacity="1"/></g><g mask="url(#h)" style="display:block"><path fill="#EBE6EE" d="M120 449c-16.569 0-30 13.431-30 30v7a3 3 0 0 0 3 3h84a3 3 0 0 0 3-3v-7c0-16.569-13.431-30-30-30h-30z" class="tertiary"/><path fill="#EBE6EE" d="M-25 10c0-16.569 13.431-30 30-30h20C8.431-20-5-6.569-5 10v10h-17a3 3 0 0 1-3-3v-7z" class="tertiary" style="mix-blend-mode:multiply" transform="translate(115 469)"/><path fill="#FFC638" d="M135.5 439c12.426 0 22.5-10.074 22.5-22.5S147.926 394 135.5 394 113 404.074 113 416.5s10.074 22.5 22.5 22.5z" class="quaternary"/><path fill="#FFC638" d="M-3.331-5c0-7.06 3.251-13.36 8.338-17.485-.278-.01-.557-.015-.838-.015-12.426 0-22.5 10.074-22.5 22.5s10.074 22.5 22.5 22.5a22.406 22.406 0 0 0 14.162-5.015C6.293 17.044-3.331 7.146-3.331-5z" class="quaternary" opacity=".5" style="mix-blend-mode:multiply" transform="translate(131.188 416.5)"/></g><g mask="url(#h)" style="display:block"><path fill="none" stroke="#121330" stroke-linecap="round" stroke-linejoin="round" stroke-width="7" d="M120 449c-16.569 0-30 13.431-30 30v7a3 3 0 0 0 3 3h84a3 3 0 0 0 3-3v-7c0-16.569-13.431-30-30-30h-30zm15.5-10c12.426 0 22.5-10.074 22.5-22.5S147.926 394 135.5 394 113 404.074 113 416.5s10.074 22.5 22.5 22.5z" class="primary"/></g><g mask="url(#i)" style="display:none"><path class="tertiary"/><path class="tertiary" style="mix-blend-mode:multiply"/><path class="quaternary"/><path class="quaternary" style="mix-blend-mode:multiply"/></g><g fill="none" mask="url(#i)" style="display:none"><path class="primary"/><path class="primary"/></g><path fill="#FFC638" d="M0 22.5c12.426 0 22.5-10.074 22.5-22.5S12.426-22.5 0-22.5-22.5-12.426-22.5 0-12.426 22.5 0 22.5z" class="quaternary" style="display:block" transform="translate(295.5 147.5)"/><path fill="#EBE6EE" d="M-15-20c-16.569 0-30 13.431-30 30v7a3 3 0 0 0 3 3h84a3 3 0 0 0 3-3v-7c0-16.569-13.431-30-30-30h-30z" class="tertiary" style="display:block" transform="translate(295 200)"/><g opacity=".5" style="mix-blend-mode:multiply;display:block"><path fill="#FFC638" d="M288 142.5c0-7.06 3.251-13.36 8.338-17.485-.278-.01-.557-.015-.838-.015-12.426 0-22.5 10.074-22.5 22.5s10.074 22.5 22.5 22.5a22.406 22.406 0 0 0 14.162-5.015C297.624 164.544 288 154.646 288 142.5z" class="quaternary" opacity="1"/></g><g opacity=".5" style="mix-blend-mode:multiply;display:block"><path fill="#EBE6EE" d="M250 210c0-16.569 13.431-30 30-30h20c-16.569 0-30 13.431-30 30v10h-17a3 3 0 0 1-3-3v-7z" class="tertiary" opacity="1"/></g><path fill="none" stroke="#121330" stroke-linecap="round" stroke-linejoin="round" stroke-width="7" d="M0 22.5c12.426 0 22.5-10.074 22.5-22.5S12.426-22.5 0-22.5-22.5-12.426-22.5 0-12.426 22.5 0 22.5z" class="primary" style="display:block" transform="translate(295.5 147.5)"/><path fill="none" stroke="#121330" stroke-linecap="round" stroke-linejoin="round" stroke-width="7" d="M-15-20c-16.569 0-30 13.431-30 30v7a3 3 0 0 0 3 3h84a3 3 0 0 0 3-3v-7c0-16.569-13.431-30-30-30h-30z" class="primary" style="display:block" transform="translate(295 200)"/><g style="display:block"><path fill="#4AB3FC" d="M114.94 249.999c-19.33 0-35 15.67-35 35v7a3 3 0 0 0 3 3h104a3 3 0 0 0 3-3v-7c0-19.33-15.67-35-35-35h-40z" class="quinary"/><path fill="#4AB3FC" d="M-27.5 12.5c0-19.33 15.67-35 35-35h20c-19.33 0-35 15.67-35 35v10h-17a3 3 0 0 1-3-3v-7z" class="quinary" opacity=".5" style="mix-blend-mode:multiply" transform="translate(107.44 272.499)"/><path fill="#FFC638" d="M135.44 234.999c15.188 0 27.5-12.312 27.5-27.5s-12.312-27.5-27.5-27.5-27.5 12.312-27.5 27.5 12.312 27.5 27.5 27.5z" class="quaternary"/><path fill="#FFC638" d="M20.834 22.494c.279 0 .555-.005.832-.013a27.37 27.37 0 0 1-15.832 5.013c-15.188 0-27.5-12.312-27.5-27.5 0-14.909 11.865-27.048 26.667-27.488C-2.056-22.516-6.666-14.299-6.666-5.006c0 15.188 12.312 27.5 27.5 27.5z" class="quaternary" style="mix-blend-mode:multiply" transform="translate(129.596 207.499)"/></g><path fill="none" stroke="#121330" stroke-linecap="round" stroke-linejoin="round" stroke-width="7" d="M114.94 249.999c-19.33 0-35 15.67-35 35v7a3 3 0 0 0 3 3h104a3 3 0 0 0 3-3v-7c0-19.33-15.67-35-35-35h-40zm20.5-15c15.188 0 27.5-12.312 27.5-27.5s-12.312-27.5-27.5-27.5-27.5 12.312-27.5 27.5 12.312 27.5 27.5 27.5z" class="primary" style="display:block"/><path fill="none" stroke="#121330" stroke-linecap="round" stroke-linejoin="round" stroke-width="7" d="M352.712 375.119H77.288c-12.375 0-22.407-10.032-22.407-22.407V77.288c0-12.375 10.032-22.407 22.407-22.407h275.424c12.375 0 22.407 10.032 22.407 22.407v275.424c0 12.375-10.032 22.407-22.407 22.407zm20.407-268.865H54.881m160.119.323v268.542m160.119-134.432H216.007" class="primary" style="display:block"/></g><g clip-path="url(#j)" style="display:none"><g style="display:none"><path class="tertiary"/><path class="secondary"/><path fill="none" class="septenary"/><path fill="none" class="quaternary"/><path fill="none" class="senary"/></g><g mask="url(#k)" style="display:none"><path class="octonary"/><path fill="none" class="primary"/><path fill="none" class="primary"/><path class="quinary"/></g><g style="display:none"><path class="quaternary"/><path class="quaternary" style="mix-blend-mode:multiply"/><path class="secondary"/><path class="secondary" style="mix-blend-mode:multiply"/></g><g style="display:none"><path class="quaternary"/><path class="quaternary" style="mix-blend-mode:multiply"/><path class="tertiary"/><path class="tertiary" style="mix-blend-mode:multiply"/></g><g style="display:none"><path class="quaternary"/><path class="quaternary" style="mix-blend-mode:multiply"/><path class="quinary"/><path class="quinary" style="mix-blend-mode:multiply"/></g><g fill="none" style="display:none"><path class="primary"/><path class="primary"/></g><g fill="none" style="display:none"><path class="primary"/><path class="primary"/></g><g fill="none" style="display:none"><path class="primary"/><path class="primary"/></g><g fill="none" style="display:none"><path class="primary"/><path class="primary"/></g><g fill="none" style="display:none"><path class="primary"/><path class="primary"/></g><g fill="none" style="display:none"><path class="primary"/><path class="primary"/></g><g fill="none" style="display:none"><path class="primary"/><path class="primary"/></g><path fill="none" class="primary" style="display:none"/></g></g></svg>