<svg width="46" height="30" viewBox="0 0 46 30" fill="none" xmlns="http://www.w3.org/2000/svg">
<path d="M14.3174 3.5C14.1019 3.50031 13.8893 3.54904 13.6952 3.6426C13.5011 3.73615 13.3306 3.87214 13.1961 4.0405L4.42736 15H17.2499C17.6311 15 17.9967 15.1514 18.2663 15.421C18.5359 15.6906 18.6874 16.0563 18.6874 16.4375C18.6874 17.5812 19.1417 18.6781 19.9505 19.4869C20.7592 20.2956 21.8561 20.75 22.9999 20.75C24.1436 20.75 25.2405 20.2956 26.0493 19.4869C26.858 18.6781 27.3124 17.5812 27.3124 16.4375C27.3124 16.0563 27.4638 15.6906 27.7334 15.421C28.003 15.1514 28.3686 15 28.7499 15H41.5724L32.8036 4.0405C32.6692 3.87214 32.4986 3.73615 32.3045 3.6426C32.1104 3.54904 31.8978 3.50031 31.6824 3.5H14.3174ZM10.9536 2.24362C11.3572 1.73907 11.8691 1.33166 12.4513 1.0515C13.0335 0.771332 13.6712 0.625576 14.3174 0.625H31.6824C32.3285 0.625576 32.9662 0.771332 33.5484 1.0515C34.1307 1.33166 34.6425 1.73907 35.0461 2.24362L45.6836 15.5405C45.8036 15.6903 45.8924 15.8626 45.9448 16.0473C45.9971 16.232 46.0119 16.4253 45.9884 16.6158L44.8671 25.5972C44.7367 26.6406 44.2297 27.6003 43.4414 28.296C42.653 28.9917 41.6377 29.3754 40.5862 29.375H5.41349C4.36207 29.3754 3.34672 28.9917 2.55837 28.296C1.77002 27.6003 1.26299 26.6406 1.13261 25.5972L0.0113618 16.6158C-0.0122024 16.4253 0.002623 16.232 0.0549635 16.0473C0.107304 15.8626 0.1961 15.6903 0.316112 15.5405L10.9536 2.24362Z" fill="#ABBED1"/>
</svg>
