<svg width="104" height="26" viewBox="0 0 104 26" fill="none" xmlns="http://www.w3.org/2000/svg">
<path d="M7.614 18.324C6.414 18.324 5.388 18.114 4.536 17.694C3.696 17.274 3.018 16.728 2.502 16.056C1.986 15.384 1.608 14.658 1.368 13.878C1.128 13.086 1.008 12.324 1.008 11.592V11.196C1.008 10.404 1.128 9.612 1.368 8.82C1.62 8.028 2.004 7.308 2.52 6.66C3.036 6.012 3.708 5.49 4.536 5.094C5.364 4.698 6.354 4.5 7.506 4.5C8.682 4.5 9.69 4.704 10.53 5.112C11.37 5.52 12.036 6.09 12.528 6.822C13.02 7.554 13.32 8.418 13.428 9.414H11.628C11.532 8.67 11.292 8.058 10.908 7.578C10.524 7.086 10.038 6.72 9.45 6.48C8.874 6.24 8.226 6.12 7.506 6.12C6.726 6.12 6.042 6.258 5.454 6.534C4.866 6.798 4.374 7.176 3.978 7.668C3.594 8.148 3.3 8.706 3.096 9.342C2.904 9.978 2.808 10.668 2.808 11.412C2.808 12.12 2.904 12.792 3.096 13.428C3.3 14.064 3.6 14.628 3.996 15.12C4.404 15.612 4.908 16.002 5.508 16.29C6.108 16.566 6.81 16.704 7.614 16.704C8.742 16.704 9.69 16.422 10.458 15.858C11.226 15.294 11.694 14.478 11.862 13.41H13.662C13.542 14.31 13.236 15.132 12.744 15.876C12.264 16.62 11.592 17.214 10.728 17.658C9.876 18.102 8.838 18.324 7.614 18.324ZM14.6263 18L19.5223 10.98V11.304L15.0583 4.86H17.0563L20.4943 9.9H20.7823L24.2743 4.86H26.1823L21.5923 11.376L21.5743 11.052L26.5423 18H24.5443L20.6203 12.474H20.3323L16.5343 18H14.6263ZM34.326 18.324C33.15 18.324 32.136 18.114 31.284 17.694C30.432 17.274 29.73 16.722 29.178 16.038C28.626 15.354 28.212 14.622 27.936 13.842C27.672 13.062 27.54 12.312 27.54 11.592V11.196C27.54 10.416 27.678 9.63 27.954 8.838C28.23 8.046 28.65 7.326 29.214 6.678C29.778 6.018 30.48 5.49 31.32 5.094C32.172 4.698 33.174 4.5 34.326 4.5C35.478 4.5 36.474 4.698 37.314 5.094C38.166 5.49 38.874 6.018 39.438 6.678C40.002 7.326 40.422 8.046 40.698 8.838C40.974 9.63 41.112 10.416 41.112 11.196V11.592C41.112 12.312 40.974 13.062 40.698 13.842C40.434 14.622 40.026 15.354 39.474 16.038C38.922 16.722 38.22 17.274 37.368 17.694C36.516 18.114 35.502 18.324 34.326 18.324ZM34.326 16.704C35.094 16.704 35.784 16.56 36.396 16.272C37.02 15.984 37.548 15.594 37.98 15.102C38.412 14.598 38.742 14.034 38.97 13.41C39.198 12.774 39.312 12.108 39.312 11.412C39.312 10.68 39.198 9.996 38.97 9.36C38.742 8.724 38.412 8.166 37.98 7.686C37.548 7.194 37.02 6.81 36.396 6.534C35.784 6.258 35.094 6.12 34.326 6.12C33.558 6.12 32.862 6.258 32.238 6.534C31.626 6.81 31.104 7.194 30.672 7.686C30.24 8.166 29.91 8.724 29.682 9.36C29.454 9.996 29.34 10.68 29.34 11.412C29.34 12.108 29.454 12.774 29.682 13.41C29.91 14.034 30.24 14.598 30.672 15.102C31.104 15.594 31.626 15.984 32.238 16.272C32.862 16.56 33.558 16.704 34.326 16.704ZM43.8622 18V8.388H45.2302V12.51H45.0142C45.0142 11.562 45.1402 10.764 45.3922 10.116C45.6562 9.456 46.0522 8.958 46.5802 8.622C47.1082 8.274 47.7742 8.1 48.5782 8.1H48.6502C49.8622 8.1 50.7562 8.478 51.3322 9.234C51.9203 9.99 52.2143 11.082 52.2143 12.51V18H50.4862V12.15C50.4862 11.406 50.2762 10.812 49.8562 10.368C49.4362 9.912 48.8602 9.684 48.1282 9.684C47.3722 9.684 46.7602 9.918 46.2922 10.386C45.8242 10.854 45.5902 11.478 45.5902 12.258V18H43.8622ZM59.5619 18.324C58.7219 18.324 57.9959 18.18 57.3839 17.892C56.7719 17.604 56.2739 17.226 55.8899 16.758C55.5059 16.278 55.2179 15.744 55.0259 15.156C54.8459 14.568 54.7559 13.968 54.7559 13.356V13.032C54.7559 12.408 54.8459 11.802 55.0259 11.214C55.2179 10.626 55.5059 10.098 55.8899 9.63C56.2739 9.15 56.7599 8.772 57.3479 8.496C57.9479 8.208 58.6499 8.064 59.4539 8.064C60.4979 8.064 61.3559 8.292 62.0279 8.748C62.7119 9.192 63.2159 9.768 63.5399 10.476C63.8759 11.184 64.0439 11.94 64.0439 12.744V13.518H55.5119V12.222H62.7839L62.3879 12.924C62.3879 12.24 62.2799 11.652 62.0639 11.16C61.8479 10.656 61.5239 10.266 61.0919 9.99C60.6599 9.714 60.1139 9.576 59.4539 9.576C58.7699 9.576 58.1999 9.732 57.7439 10.044C57.2999 10.356 56.9639 10.782 56.7359 11.322C56.5199 11.862 56.4119 12.486 56.4119 13.194C56.4119 13.878 56.5199 14.496 56.7359 15.048C56.9639 15.588 57.3119 16.02 57.7799 16.344C58.2479 16.656 58.8419 16.812 59.5619 16.812C60.3179 16.812 60.9299 16.644 61.3979 16.308C61.8779 15.972 62.1659 15.582 62.2619 15.138H63.8819C63.7499 15.798 63.4859 16.368 63.0899 16.848C62.6939 17.328 62.1959 17.694 61.5959 17.946C60.9959 18.198 60.3179 18.324 59.5619 18.324Z" fill="#1E2128"/>
<path d="M72.6454 18.342C71.4694 18.342 70.4434 18.15 69.5674 17.766C68.6914 17.37 67.9654 16.842 67.3894 16.182C66.8254 15.522 66.4054 14.79 66.1294 13.986C65.8534 13.182 65.7154 12.378 65.7154 11.574V11.178C65.7154 10.35 65.8534 9.54 66.1294 8.748C66.4054 7.956 66.8194 7.236 67.3714 6.588C67.9354 5.94 68.6314 5.424 69.4594 5.04C70.2994 4.656 71.2654 4.464 72.3574 4.464C73.5454 4.464 74.5954 4.686 75.5074 5.13C76.4194 5.562 77.1514 6.168 77.7034 6.948C78.2554 7.716 78.5734 8.61 78.6574 9.63H75.7054C75.6334 9.15 75.4414 8.73 75.1294 8.37C74.8294 8.01 74.4394 7.728 73.9594 7.524C73.4914 7.32 72.9574 7.218 72.3574 7.218C71.7814 7.218 71.2654 7.32 70.8094 7.524C70.3654 7.728 69.9814 8.016 69.6574 8.388C69.3454 8.76 69.1054 9.204 68.9374 9.72C68.7814 10.224 68.7034 10.782 68.7034 11.394C68.7034 12.03 68.7874 12.612 68.9554 13.14C69.1354 13.656 69.3934 14.106 69.7294 14.49C70.0654 14.862 70.4794 15.15 70.9714 15.354C71.4754 15.558 72.0334 15.66 72.6454 15.66C73.4614 15.66 74.1694 15.492 74.7694 15.156C75.3694 14.82 75.8014 14.376 76.0654 13.824L75.7054 15.84V12.708H78.4234V15.516C77.8594 16.428 77.0794 17.13 76.0834 17.622C75.0994 18.102 73.9534 18.342 72.6454 18.342ZM72.2674 13.284V11.16H79.5034V13.284H72.2674ZM87.7764 18.342C86.5884 18.342 85.5504 18.138 84.6624 17.73C83.7864 17.31 83.0604 16.764 82.4844 16.092C81.9084 15.408 81.4764 14.67 81.1884 13.878C80.9124 13.086 80.7744 12.324 80.7744 11.592V11.196C80.7744 10.38 80.9184 9.576 81.2064 8.784C81.5064 7.98 81.9504 7.254 82.5384 6.606C83.1264 5.958 83.8584 5.442 84.7344 5.058C85.6104 4.662 86.6244 4.464 87.7764 4.464C88.9284 4.464 89.9424 4.662 90.8184 5.058C91.6944 5.442 92.4264 5.958 93.0144 6.606C93.6024 7.254 94.0464 7.98 94.3464 8.784C94.6464 9.576 94.7964 10.38 94.7964 11.196V11.592C94.7964 12.324 94.6524 13.086 94.3644 13.878C94.0764 14.67 93.6444 15.408 93.0684 16.092C92.4924 16.764 91.7604 17.31 90.8724 17.73C89.9964 18.138 88.9644 18.342 87.7764 18.342ZM87.7764 15.588C88.4004 15.588 88.9584 15.48 89.4504 15.264C89.9544 15.048 90.3804 14.748 90.7284 14.364C91.0884 13.98 91.3584 13.536 91.5384 13.032C91.7184 12.528 91.8084 11.988 91.8084 11.412C91.8084 10.8 91.7124 10.242 91.5204 9.738C91.3404 9.222 91.0704 8.778 90.7104 8.406C90.3624 8.022 89.9424 7.728 89.4504 7.524C88.9584 7.32 88.4004 7.218 87.7764 7.218C87.1524 7.218 86.5944 7.32 86.1024 7.524C85.6104 7.728 85.1844 8.022 84.8244 8.406C84.4764 8.778 84.2124 9.222 84.0324 9.738C83.8524 10.242 83.7624 10.8 83.7624 11.412C83.7624 11.988 83.8524 12.528 84.0324 13.032C84.2124 13.536 84.4764 13.98 84.8244 14.364C85.1844 14.748 85.6104 15.048 86.1024 15.264C86.5944 15.48 87.1524 15.588 87.7764 15.588Z" fill="#235C61"/>
</svg>
