<svg width="20" height="20" viewBox="0 0 20 20" fill="none" xmlns="http://www.w3.org/2000/svg">
<circle cx="2.45117" cy="2.45117" r="2.45117" transform="matrix(-1 0 0 1 12.2559 7.35547)" stroke="#F7870E" stroke-width="1.22559"/>
<path d="M13.4818 4.03682L13.1754 4.56752L13.1754 4.56752L13.4818 4.03682ZM13.4818 15.5771L13.1754 15.0464L13.1754 15.0464L13.4818 15.5771ZM6.12829 15.5771L6.43469 15.0464L6.12829 15.5771ZM6.12829 4.03682L6.43469 4.56752L6.43469 4.56752L6.12829 4.03682ZM7.29091 2.46609L6.6939 2.32795L7.29091 2.46609ZM2.08895 7.11337L1.51039 6.91139L2.08895 7.11337ZM3.59751 15.1203L4.06288 14.7216L3.59751 15.1203ZM7.79456 17.7287L7.64425 18.3227L7.79456 17.7287ZM12.3191 17.1483L12.9161 17.2863L12.3191 17.1483ZM11.8156 17.7286L11.6652 17.1346L11.8156 17.7286ZM16.0125 15.1202L16.4779 15.5189L16.0125 15.1202ZM15.2698 15.3141L15.1291 15.9105L15.2698 15.3141ZM17.621 7.41895L18.2071 7.24007L17.621 7.41895ZM17.3573 8.17165L16.9495 7.71422L17.3573 8.17165ZM2.08895 12.5012L1.51039 12.7032L2.08895 12.5012ZM2.37502 11.7L1.98535 11.227L2.37502 11.7ZM15.2695 4.29991L15.1288 3.70348L15.2695 4.29991ZM16.012 4.49372L16.4773 4.095L16.012 4.49372ZM3.59803 4.4937L3.1327 4.09497L3.59803 4.4937ZM17.2812 11.7615L17.7079 11.3217L17.2812 11.7615ZM17.5127 12.5249L18.0907 12.7287L17.5127 12.5249ZM11.7222 2.60426C11.9067 3.4016 12.4097 4.12541 13.1754 4.56752L13.7882 3.50613C13.3287 3.24084 13.0273 2.80822 12.9162 2.32797L11.7222 2.60426ZM13.1754 4.56752C13.8788 4.97365 14.6778 5.06902 15.4101 4.89635L15.1288 3.70348C14.6883 3.80734 14.2107 3.75004 13.7882 3.50613L13.1754 4.56752ZM18.2071 7.24007C17.8495 6.06844 17.2539 5.00136 16.4773 4.095L15.5467 4.89245C16.2156 5.67311 16.7276 6.59114 17.0349 7.59782L18.2071 7.24007ZM17.1493 10.002C17.1493 9.45625 17.3864 8.96666 17.7651 8.62909L16.9495 7.71422C16.321 8.27449 15.9237 9.09224 15.9237 10.002H17.1493ZM17.7079 11.3217C17.3627 10.9868 17.1493 10.5199 17.1493 10.002H15.9237C15.9237 10.8648 16.2812 11.6453 16.8545 12.2014L17.7079 11.3217ZM16.4779 15.5189C17.1752 14.7049 17.7266 13.7613 18.0907 12.7287L16.9348 12.3212C16.6219 13.2085 16.1478 14.0204 15.5471 14.7216L16.4779 15.5189ZM13.7882 16.1078C14.2108 15.8638 14.6885 15.8065 15.1291 15.9105L15.4105 14.7177C14.6781 14.5448 13.879 14.6402 13.1754 15.0464L13.7882 16.1078ZM12.9161 17.2863C13.0272 16.8059 13.3286 16.3731 13.7882 16.1078L13.1754 15.0464C12.4094 15.4886 11.9064 16.2127 11.722 17.0103L12.9161 17.2863ZM9.805 18.5907C10.5499 18.5907 11.2739 18.4978 11.9659 18.3227L11.6652 17.1346C11.0708 17.285 10.4477 17.3651 9.805 17.3651V18.5907ZM7.64425 18.3227C8.33614 18.4978 9.06016 18.5907 9.805 18.5907V17.3651C9.16236 17.3651 8.5393 17.285 7.94487 17.1346L7.64425 18.3227ZM5.8219 16.1078C6.28152 16.3731 6.58294 16.8059 6.69399 17.2863L7.88809 17.0103C7.70373 16.2127 7.20067 15.4886 6.43469 15.0464L5.8219 16.1078ZM4.48095 15.9105C4.92156 15.8065 5.39933 15.8638 5.8219 16.1078L6.43469 15.0464C5.73108 14.6402 4.93193 14.5448 4.19948 14.7177L4.48095 15.9105ZM1.51039 12.7032C1.87436 13.7458 2.42902 14.6982 3.13214 15.519L4.06288 14.7216C3.45727 14.0147 2.98027 13.1952 2.6675 12.2992L1.51039 12.7032ZM2.65574 9.80729C2.65574 10.3787 2.39577 10.8889 1.98535 11.227L2.76469 12.1729C3.44555 11.6119 3.88133 10.7602 3.88133 9.80729H2.65574ZM1.98535 8.38754C2.39577 8.7257 2.65574 9.23588 2.65574 9.80729H3.88133C3.88133 8.85433 3.44555 8.00264 2.76469 7.44166L1.98535 8.38754ZM3.1327 4.09497C2.42931 4.91585 1.87445 5.86855 1.51039 6.91139L2.6675 7.31534C2.98035 6.41918 3.45753 5.59945 4.06336 4.89242L3.1327 4.09497ZM5.8219 3.50613C5.39941 3.75005 4.92175 3.80735 4.48122 3.70346L4.19993 4.89633C4.93226 5.06902 5.73123 4.97366 6.43469 4.56752L5.8219 3.50613ZM6.6939 2.32795C6.58277 2.80821 6.28139 3.24084 5.8219 3.50613L6.43469 4.56752C7.20045 4.1254 7.70344 3.40158 7.88793 2.60423L6.6939 2.32795ZM9.805 1.02393C9.0601 1.02393 8.33602 1.11679 7.64407 1.29188L7.94472 2.48002C8.53919 2.32959 9.1623 2.24951 9.805 2.24951V1.02393ZM11.9661 1.29192C11.2741 1.1168 10.5499 1.02393 9.805 1.02393V2.24951C10.4477 2.24951 11.0709 2.32961 11.6654 2.48005L11.9661 1.29192ZM7.88793 2.60423C7.90069 2.54911 7.9223 2.51022 7.93907 2.48983C7.95347 2.47231 7.95604 2.47715 7.94472 2.48002L7.64407 1.29188C7.07932 1.43479 6.78771 1.92252 6.6939 2.32795L7.88793 2.60423ZM2.76469 7.44166C2.71495 7.40068 2.68603 7.35633 2.67443 7.32667C2.66468 7.30173 2.67186 7.30285 2.6675 7.31534L1.51039 6.91139C1.29305 7.53397 1.6298 8.09459 1.98535 8.38754L2.76469 7.44166ZM4.19948 14.7177C4.14455 14.7306 4.10019 14.7285 4.07448 14.7225C4.05237 14.7174 4.05541 14.7129 4.06288 14.7216L3.13214 15.519C3.51052 15.9606 4.076 16.0061 4.48095 15.9105L4.19948 14.7177ZM7.94487 17.1346C7.95619 17.1375 7.95362 17.1423 7.93922 17.1248C7.92245 17.1044 7.90084 17.0655 7.88809 17.0103L6.69399 17.2863C6.78773 17.6919 7.07935 18.1798 7.64425 18.3227L7.94487 17.1346ZM11.722 17.0103C11.7093 17.0655 11.6877 17.1044 11.6709 17.1248C11.6565 17.1423 11.6539 17.1374 11.6652 17.1346L11.9659 18.3227C12.5308 18.1798 12.8224 17.6919 12.9161 17.2863L11.722 17.0103ZM15.5471 14.7216C15.5546 14.7129 15.5576 14.7174 15.5355 14.7225C15.5098 14.7285 15.4655 14.7306 15.4105 14.7177L15.1291 15.9105C15.534 16.006 16.0995 15.9606 16.4779 15.5189L15.5471 14.7216ZM17.0349 7.59782C17.0313 7.58615 17.0373 7.58568 17.0288 7.60815C17.0187 7.63452 16.9938 7.67477 16.9495 7.71422L17.7651 8.62909C18.0877 8.34152 18.3849 7.82288 18.2071 7.24007L17.0349 7.59782ZM2.6675 12.2992C2.67186 12.3117 2.66468 12.3129 2.67443 12.2879C2.68603 12.2582 2.71495 12.2139 2.76469 12.1729L1.98535 11.227C1.6298 11.52 1.29305 12.0806 1.51039 12.7032L2.6675 12.2992ZM15.4101 4.89635C15.465 4.8834 15.5093 4.88553 15.535 4.89152C15.5572 4.89667 15.5541 4.90116 15.5467 4.89245L16.4773 4.095C16.099 3.65349 15.5337 3.60802 15.1288 3.70348L15.4101 4.89635ZM4.06336 4.89242C4.0559 4.90113 4.05286 4.89664 4.07496 4.89149C4.10066 4.88551 4.145 4.88338 4.19993 4.89633L4.48122 3.70346C4.07634 3.60799 3.51102 3.65345 3.1327 4.09497L4.06336 4.89242ZM16.8545 12.2014C16.8971 12.2427 16.9202 12.2839 16.9292 12.3106C16.9368 12.3334 16.9307 12.3327 16.9348 12.3212L18.0907 12.7287C18.2934 12.1538 18.0182 11.6228 17.7079 11.3217L16.8545 12.2014ZM12.9162 2.32797C12.8224 1.92255 12.5308 1.43483 11.9661 1.29192L11.6654 2.48005C11.6541 2.47719 11.6566 2.47234 11.671 2.48986C11.6878 2.51025 11.7094 2.54914 11.7222 2.60426L12.9162 2.32797Z" fill="#F7870E"/>
</svg>
