<svg width="114" height="26" viewBox="0 0 114 26" fill="none" xmlns="http://www.w3.org/2000/svg">
<path d="M7.614 18.324C6.414 18.324 5.388 18.114 4.536 17.694C3.696 17.274 3.018 16.728 2.502 16.056C1.986 15.384 1.608 14.658 1.368 13.878C1.128 13.086 1.008 12.324 1.008 11.592V11.196C1.008 10.404 1.128 9.612 1.368 8.82C1.62 8.028 2.004 7.308 2.52 6.66C3.036 6.012 3.708 5.49 4.536 5.094C5.364 4.698 6.354 4.5 7.506 4.5C8.682 4.5 9.69 4.704 10.53 5.112C11.37 5.52 12.036 6.09 12.528 6.822C13.02 7.554 13.32 8.418 13.428 9.414H11.628C11.532 8.67 11.292 8.058 10.908 7.578C10.524 7.086 10.038 6.72 9.45 6.48C8.874 6.24 8.226 6.12 7.506 6.12C6.726 6.12 6.042 6.258 5.454 6.534C4.866 6.798 4.374 7.176 3.978 7.668C3.594 8.148 3.3 8.706 3.096 9.342C2.904 9.978 2.808 10.668 2.808 11.412C2.808 12.12 2.904 12.792 3.096 13.428C3.3 14.064 3.6 14.628 3.996 15.12C4.404 15.612 4.908 16.002 5.508 16.29C6.108 16.566 6.81 16.704 7.614 16.704C8.742 16.704 9.69 16.422 10.458 15.858C11.226 15.294 11.694 14.478 11.862 13.41H13.662C13.542 14.31 13.236 15.132 12.744 15.876C12.264 16.62 11.592 17.214 10.728 17.658C9.876 18.102 8.838 18.324 7.614 18.324ZM14.6263 18L19.5223 10.98V11.304L15.0583 4.86H17.0563L20.4943 9.9H20.7823L24.2743 4.86H26.1823L21.5923 11.376L21.5743 11.052L26.5423 18H24.5443L20.6203 12.474H20.3323L16.5343 18H14.6263ZM27.6849 13.734V12.258H34.3809V13.734H27.6849ZM43.3909 18.324C42.2149 18.324 41.2009 18.114 40.3489 17.694C39.4969 17.274 38.7949 16.722 38.2429 16.038C37.6909 15.354 37.2769 14.622 37.0009 13.842C36.7369 13.062 36.6049 12.312 36.6049 11.592V11.196C36.6049 10.416 36.7429 9.63 37.0189 8.838C37.2949 8.046 37.7149 7.326 38.2789 6.678C38.8429 6.018 39.5449 5.49 40.3849 5.094C41.2369 4.698 42.2389 4.5 43.3909 4.5C44.5429 4.5 45.5389 4.698 46.3789 5.094C47.2309 5.49 47.9389 6.018 48.5029 6.678C49.0669 7.326 49.4869 8.046 49.7629 8.838C50.0389 9.63 50.1769 10.416 50.1769 11.196V11.592C50.1769 12.312 50.0389 13.062 49.7629 13.842C49.4989 14.622 49.0909 15.354 48.5389 16.038C47.9869 16.722 47.2849 17.274 46.4329 17.694C45.5809 18.114 44.5669 18.324 43.3909 18.324ZM43.3909 16.704C44.1589 16.704 44.8489 16.56 45.4609 16.272C46.0849 15.984 46.6129 15.594 47.0449 15.102C47.4769 14.598 47.8069 14.034 48.0349 13.41C48.2629 12.774 48.3769 12.108 48.3769 11.412C48.3769 10.68 48.2629 9.996 48.0349 9.36C47.8069 8.724 47.4769 8.166 47.0449 7.686C46.6129 7.194 46.0849 6.81 45.4609 6.534C44.8489 6.258 44.1589 6.12 43.3909 6.12C42.6229 6.12 41.9269 6.258 41.3029 6.534C40.6909 6.81 40.1689 7.194 39.7369 7.686C39.3049 8.166 38.9749 8.724 38.7469 9.36C38.5189 9.996 38.4049 10.68 38.4049 11.412C38.4049 12.108 38.5189 12.774 38.7469 13.41C38.9749 14.034 39.3049 14.598 39.7369 15.102C40.1689 15.594 40.6909 15.984 41.3029 16.272C41.9269 16.56 42.6229 16.704 43.3909 16.704ZM52.9271 18V8.388H54.2951V12.51H54.0791C54.0791 11.562 54.2051 10.764 54.4571 10.116C54.7211 9.456 55.1171 8.958 55.6451 8.622C56.1731 8.274 56.8391 8.1 57.6431 8.1H57.7151C58.9271 8.1 59.8211 8.478 60.3971 9.234C60.9851 9.99 61.2791 11.082 61.2791 12.51V18H59.5511V12.15C59.5511 11.406 59.3411 10.812 58.9211 10.368C58.5011 9.912 57.9251 9.684 57.1931 9.684C56.4371 9.684 55.8251 9.918 55.3571 10.386C54.8891 10.854 54.6551 11.478 54.6551 12.258V18H52.9271ZM68.6268 18.324C67.7868 18.324 67.0608 18.18 66.4488 17.892C65.8368 17.604 65.3388 17.226 64.9548 16.758C64.5708 16.278 64.2828 15.744 64.0908 15.156C63.9108 14.568 63.8208 13.968 63.8208 13.356V13.032C63.8208 12.408 63.9108 11.802 64.0908 11.214C64.2828 10.626 64.5708 10.098 64.9548 9.63C65.3388 9.15 65.8248 8.772 66.4128 8.496C67.0128 8.208 67.7148 8.064 68.5188 8.064C69.5628 8.064 70.4208 8.292 71.0928 8.748C71.7768 9.192 72.2808 9.768 72.6048 10.476C72.9408 11.184 73.1088 11.94 73.1088 12.744V13.518H64.5768V12.222H71.8488L71.4528 12.924C71.4528 12.24 71.3448 11.652 71.1288 11.16C70.9128 10.656 70.5888 10.266 70.1568 9.99C69.7248 9.714 69.1788 9.576 68.5188 9.576C67.8348 9.576 67.2648 9.732 66.8088 10.044C66.3648 10.356 66.0288 10.782 65.8008 11.322C65.5848 11.862 65.4768 12.486 65.4768 13.194C65.4768 13.878 65.5848 14.496 65.8008 15.048C66.0288 15.588 66.3768 16.02 66.8448 16.344C67.3128 16.656 67.9068 16.812 68.6268 16.812C69.3828 16.812 69.9948 16.644 70.4628 16.308C70.9428 15.972 71.2308 15.582 71.3268 15.138H72.9468C72.8148 15.798 72.5508 16.368 72.1548 16.848C71.7588 17.328 71.2608 17.694 70.6608 17.946C70.0608 18.198 69.3828 18.324 68.6268 18.324ZM75.1942 13.734V12.258H81.8902V13.734H75.1942Z" fill="#1E2128"/>
<path d="M90.8806 18.342C89.7046 18.342 88.6786 18.15 87.8026 17.766C86.9266 17.37 86.2006 16.842 85.6246 16.182C85.0606 15.522 84.6406 14.79 84.3646 13.986C84.0886 13.182 83.9506 12.378 83.9506 11.574V11.178C83.9506 10.35 84.0886 9.54 84.3646 8.748C84.6406 7.956 85.0546 7.236 85.6066 6.588C86.1706 5.94 86.8666 5.424 87.6946 5.04C88.5346 4.656 89.5006 4.464 90.5926 4.464C91.7806 4.464 92.8306 4.686 93.7426 5.13C94.6546 5.562 95.3866 6.168 95.9386 6.948C96.4906 7.716 96.8086 8.61 96.8926 9.63H93.9406C93.8686 9.15 93.6766 8.73 93.3646 8.37C93.0646 8.01 92.6746 7.728 92.1946 7.524C91.7266 7.32 91.1926 7.218 90.5926 7.218C90.0166 7.218 89.5006 7.32 89.0446 7.524C88.6006 7.728 88.2166 8.016 87.8926 8.388C87.5806 8.76 87.3406 9.204 87.1726 9.72C87.0166 10.224 86.9386 10.782 86.9386 11.394C86.9386 12.03 87.0226 12.612 87.1906 13.14C87.3706 13.656 87.6286 14.106 87.9646 14.49C88.3006 14.862 88.7146 15.15 89.2066 15.354C89.7106 15.558 90.2686 15.66 90.8806 15.66C91.6966 15.66 92.4046 15.492 93.0046 15.156C93.6046 14.82 94.0366 14.376 94.3006 13.824L93.9406 15.84V12.708H96.6586V15.516C96.0946 16.428 95.3146 17.13 94.3186 17.622C93.3346 18.102 92.1886 18.342 90.8806 18.342ZM90.5026 13.284V11.16H97.7386V13.284H90.5026ZM106.012 18.342C104.824 18.342 103.786 18.138 102.898 17.73C102.022 17.31 101.296 16.764 100.72 16.092C100.144 15.408 99.7115 14.67 99.4235 13.878C99.1475 13.086 99.0095 12.324 99.0095 11.592V11.196C99.0095 10.38 99.1535 9.576 99.4415 8.784C99.7416 7.98 100.186 7.254 100.774 6.606C101.362 5.958 102.094 5.442 102.97 5.058C103.846 4.662 104.86 4.464 106.012 4.464C107.164 4.464 108.178 4.662 109.054 5.058C109.93 5.442 110.662 5.958 111.25 6.606C111.838 7.254 112.282 7.98 112.582 8.784C112.882 9.576 113.032 10.38 113.032 11.196V11.592C113.032 12.324 112.888 13.086 112.6 13.878C112.312 14.67 111.88 15.408 111.304 16.092C110.728 16.764 109.996 17.31 109.108 17.73C108.232 18.138 107.2 18.342 106.012 18.342ZM106.012 15.588C106.636 15.588 107.194 15.48 107.686 15.264C108.19 15.048 108.616 14.748 108.964 14.364C109.324 13.98 109.594 13.536 109.774 13.032C109.954 12.528 110.044 11.988 110.044 11.412C110.044 10.8 109.948 10.242 109.756 9.738C109.576 9.222 109.306 8.778 108.946 8.406C108.598 8.022 108.178 7.728 107.686 7.524C107.194 7.32 106.636 7.218 106.012 7.218C105.388 7.218 104.83 7.32 104.338 7.524C103.846 7.728 103.42 8.022 103.06 8.406C102.712 8.778 102.448 9.222 102.268 9.738C102.088 10.242 101.998 10.8 101.998 11.412C101.998 11.988 102.088 12.528 102.268 13.032C102.448 13.536 102.712 13.98 103.06 14.364C103.42 14.748 103.846 15.048 104.338 15.264C104.83 15.48 105.388 15.588 106.012 15.588Z" fill="#F7870E"/>
</svg>
