<svg width="94" height="15" viewBox="0 0 94 15" fill="none" xmlns="http://www.w3.org/2000/svg">
<path d="M6.614 14.324C5.414 14.324 4.388 14.114 3.536 13.694C2.696 13.274 2.018 12.728 1.502 12.056C0.986 11.384 0.608 10.658 0.368 9.878C0.128 9.086 0.00800003 8.324 0.00800003 7.592V7.196C0.00800003 6.404 0.128 5.612 0.368 4.82C0.62 4.028 1.004 3.308 1.52 2.66C2.036 2.012 2.708 1.49 3.536 1.094C4.364 0.697999 5.354 0.499999 6.506 0.499999C7.682 0.499999 8.69 0.703999 9.53 1.112C10.37 1.52 11.036 2.09 11.528 2.822C12.02 3.554 12.32 4.418 12.428 5.414H10.628C10.532 4.67 10.292 4.058 9.908 3.578C9.524 3.086 9.038 2.72 8.45 2.48C7.874 2.24 7.226 2.12 6.506 2.12C5.726 2.12 5.042 2.258 4.454 2.534C3.866 2.798 3.374 3.176 2.978 3.668C2.594 4.148 2.3 4.706 2.096 5.342C1.904 5.978 1.808 6.668 1.808 7.412C1.808 8.12 1.904 8.792 2.096 9.428C2.3 10.064 2.6 10.628 2.996 11.12C3.404 11.612 3.908 12.002 4.508 12.29C5.108 12.566 5.81 12.704 6.614 12.704C7.742 12.704 8.69 12.422 9.458 11.858C10.226 11.294 10.694 10.478 10.862 9.41H12.662C12.542 10.31 12.236 11.132 11.744 11.876C11.264 12.62 10.592 13.214 9.728 13.658C8.876 14.102 7.838 14.324 6.614 14.324ZM13.6263 14L18.5223 6.98V7.304L14.0583 0.86H16.0563L19.4943 5.9H19.7823L23.2743 0.86H25.1823L20.5923 7.376L20.5743 7.052L25.5423 14H23.5443L19.6203 8.474H19.3323L15.5343 14H13.6263ZM33.326 14.324C32.15 14.324 31.136 14.114 30.284 13.694C29.432 13.274 28.73 12.722 28.178 12.038C27.626 11.354 27.212 10.622 26.936 9.842C26.672 9.062 26.54 8.312 26.54 7.592V7.196C26.54 6.416 26.678 5.63 26.954 4.838C27.23 4.046 27.65 3.326 28.214 2.678C28.778 2.018 29.48 1.49 30.32 1.094C31.172 0.697999 32.174 0.499999 33.326 0.499999C34.478 0.499999 35.474 0.697999 36.314 1.094C37.166 1.49 37.874 2.018 38.438 2.678C39.002 3.326 39.422 4.046 39.698 4.838C39.974 5.63 40.112 6.416 40.112 7.196V7.592C40.112 8.312 39.974 9.062 39.698 9.842C39.434 10.622 39.026 11.354 38.474 12.038C37.922 12.722 37.22 13.274 36.368 13.694C35.516 14.114 34.502 14.324 33.326 14.324ZM33.326 12.704C34.094 12.704 34.784 12.56 35.396 12.272C36.02 11.984 36.548 11.594 36.98 11.102C37.412 10.598 37.742 10.034 37.97 9.41C38.198 8.774 38.312 8.108 38.312 7.412C38.312 6.68 38.198 5.996 37.97 5.36C37.742 4.724 37.412 4.166 36.98 3.686C36.548 3.194 36.02 2.81 35.396 2.534C34.784 2.258 34.094 2.12 33.326 2.12C32.558 2.12 31.862 2.258 31.238 2.534C30.626 2.81 30.104 3.194 29.672 3.686C29.24 4.166 28.91 4.724 28.682 5.36C28.454 5.996 28.34 6.68 28.34 7.412C28.34 8.108 28.454 8.774 28.682 9.41C28.91 10.034 29.24 10.598 29.672 11.102C30.104 11.594 30.626 11.984 31.238 12.272C31.862 12.56 32.558 12.704 33.326 12.704ZM42.8622 14V4.388H44.2302V8.51H44.0142C44.0142 7.562 44.1402 6.764 44.3922 6.116C44.6562 5.456 45.0522 4.958 45.5802 4.622C46.1082 4.274 46.7742 4.1 47.5782 4.1H47.6502C48.8622 4.1 49.7562 4.478 50.3322 5.234C50.9203 5.99 51.2143 7.082 51.2143 8.51V14H49.4862V8.15C49.4862 7.406 49.2762 6.812 48.8562 6.368C48.4362 5.912 47.8602 5.684 47.1282 5.684C46.3722 5.684 45.7602 5.918 45.2922 6.386C44.8242 6.854 44.5902 7.478 44.5902 8.258V14H42.8622ZM58.5619 14.324C57.7219 14.324 56.9959 14.18 56.3839 13.892C55.7719 13.604 55.2739 13.226 54.8899 12.758C54.5059 12.278 54.2179 11.744 54.0259 11.156C53.8459 10.568 53.7559 9.968 53.7559 9.356V9.032C53.7559 8.408 53.8459 7.802 54.0259 7.214C54.2179 6.626 54.5059 6.098 54.8899 5.63C55.2739 5.15 55.7599 4.772 56.3479 4.496C56.9479 4.208 57.6499 4.064 58.4539 4.064C59.4979 4.064 60.3559 4.292 61.0279 4.748C61.7119 5.192 62.2159 5.768 62.5399 6.476C62.8759 7.184 63.0439 7.94 63.0439 8.744V9.518H54.5119V8.222H61.7839L61.3879 8.924C61.3879 8.24 61.2799 7.652 61.0639 7.16C60.8479 6.656 60.5239 6.266 60.0919 5.99C59.6599 5.714 59.1139 5.576 58.4539 5.576C57.7699 5.576 57.1999 5.732 56.7439 6.044C56.2999 6.356 55.9639 6.782 55.7359 7.322C55.5199 7.862 55.4119 8.486 55.4119 9.194C55.4119 9.878 55.5199 10.496 55.7359 11.048C55.9639 11.588 56.3119 12.02 56.7799 12.344C57.2479 12.656 57.8419 12.812 58.5619 12.812C59.3179 12.812 59.9299 12.644 60.3979 12.308C60.8779 11.972 61.1659 11.582 61.2619 11.138H62.8819C62.7499 11.798 62.4859 12.368 62.0899 12.848C61.6939 13.328 61.1959 13.694 60.5959 13.946C59.9959 14.198 59.3179 14.324 58.5619 14.324Z" fill="white"/>
<path d="M71.6454 14.342C70.4694 14.342 69.4434 14.15 68.5674 13.766C67.6914 13.37 66.9654 12.842 66.3894 12.182C65.8254 11.522 65.4054 10.79 65.1294 9.986C64.8534 9.182 64.7154 8.378 64.7154 7.574V7.178C64.7154 6.35 64.8534 5.54 65.1294 4.748C65.4054 3.956 65.8194 3.236 66.3714 2.588C66.9354 1.94 67.6314 1.424 68.4594 1.04C69.2994 0.655999 70.2654 0.463999 71.3574 0.463999C72.5454 0.463999 73.5954 0.685999 74.5074 1.13C75.4194 1.562 76.1514 2.168 76.7034 2.948C77.2554 3.716 77.5734 4.61 77.6574 5.63H74.7054C74.6334 5.15 74.4414 4.73 74.1294 4.37C73.8294 4.01 73.4394 3.728 72.9594 3.524C72.4914 3.32 71.9574 3.218 71.3574 3.218C70.7814 3.218 70.2654 3.32 69.8094 3.524C69.3654 3.728 68.9814 4.016 68.6574 4.388C68.3454 4.76 68.1054 5.204 67.9374 5.72C67.7814 6.224 67.7034 6.782 67.7034 7.394C67.7034 8.03 67.7874 8.612 67.9554 9.14C68.1354 9.656 68.3934 10.106 68.7294 10.49C69.0654 10.862 69.4794 11.15 69.9714 11.354C70.4754 11.558 71.0334 11.66 71.6454 11.66C72.4614 11.66 73.1694 11.492 73.7694 11.156C74.3694 10.82 74.8014 10.376 75.0654 9.824L74.7054 11.84V8.708H77.4234V11.516C76.8594 12.428 76.0794 13.13 75.0834 13.622C74.0994 14.102 72.9534 14.342 71.6454 14.342ZM71.2674 9.284V7.16H78.5034V9.284H71.2674ZM86.7764 14.342C85.5884 14.342 84.5504 14.138 83.6624 13.73C82.7864 13.31 82.0604 12.764 81.4844 12.092C80.9084 11.408 80.4764 10.67 80.1884 9.878C79.9124 9.086 79.7744 8.324 79.7744 7.592V7.196C79.7744 6.38 79.9184 5.576 80.2064 4.784C80.5064 3.98 80.9504 3.254 81.5384 2.606C82.1264 1.958 82.8584 1.442 83.7344 1.058C84.6104 0.661999 85.6244 0.463999 86.7764 0.463999C87.9284 0.463999 88.9424 0.661999 89.8184 1.058C90.6944 1.442 91.4264 1.958 92.0144 2.606C92.6024 3.254 93.0464 3.98 93.3464 4.784C93.6464 5.576 93.7964 6.38 93.7964 7.196V7.592C93.7964 8.324 93.6524 9.086 93.3644 9.878C93.0764 10.67 92.6444 11.408 92.0684 12.092C91.4924 12.764 90.7604 13.31 89.8724 13.73C88.9964 14.138 87.9644 14.342 86.7764 14.342ZM86.7764 11.588C87.4004 11.588 87.9584 11.48 88.4504 11.264C88.9544 11.048 89.3804 10.748 89.7284 10.364C90.0884 9.98 90.3584 9.536 90.5384 9.032C90.7184 8.528 90.8084 7.988 90.8084 7.412C90.8084 6.8 90.7124 6.242 90.5204 5.738C90.3404 5.222 90.0704 4.778 89.7104 4.406C89.3624 4.022 88.9424 3.728 88.4504 3.524C87.9584 3.32 87.4004 3.218 86.7764 3.218C86.1524 3.218 85.5944 3.32 85.1024 3.524C84.6104 3.728 84.1844 4.022 83.8244 4.406C83.4764 4.778 83.2124 5.222 83.0324 5.738C82.8524 6.242 82.7624 6.8 82.7624 7.412C82.7624 7.988 82.8524 8.528 83.0324 9.032C83.2124 9.536 83.4764 9.98 83.8244 10.364C84.1844 10.748 84.6104 11.048 85.1024 11.264C85.5944 11.48 86.1524 11.588 86.7764 11.588Z" fill="#235C61"/>
</svg>
