<svg width="68" height="17" viewBox="0 0 68 17" fill="none" xmlns="http://www.w3.org/2000/svg">
<path d="M4.97838 12.2118C4.19377 12.2118 3.52292 12.0745 2.96585 11.7999C2.41662 11.5253 1.97331 11.1683 1.63592 10.7289C1.29854 10.2895 1.05138 9.81485 0.894462 9.30485C0.737538 8.787 0.659077 8.28877 0.659077 7.81015V7.55123C0.659077 7.03338 0.737538 6.51554 0.894462 5.99769C1.05923 5.47985 1.31031 5.00908 1.64769 4.58538C1.98508 4.16169 2.42446 3.82038 2.96585 3.56146C3.50723 3.30254 4.15454 3.17308 4.90777 3.17308C5.67669 3.17308 6.33577 3.30646 6.885 3.57323C7.43423 3.84 7.86969 4.21269 8.19139 4.69131C8.51308 5.16992 8.70923 5.73485 8.77985 6.38608H7.60292C7.54015 5.89961 7.38323 5.49946 7.13215 5.18561C6.88108 4.86392 6.56331 4.62462 6.17885 4.46769C5.80223 4.31077 5.37854 4.23231 4.90777 4.23231C4.39777 4.23231 3.95054 4.32254 3.56608 4.503C3.18162 4.67562 2.85992 4.92277 2.601 5.24446C2.34992 5.55831 2.15769 5.92315 2.02431 6.339C1.89877 6.75485 1.836 7.206 1.836 7.69246C1.836 8.15538 1.89877 8.59477 2.02431 9.01062C2.15769 9.42646 2.35385 9.79523 2.61277 10.1169C2.87954 10.4386 3.20908 10.6936 3.60138 10.8819C3.99369 11.0624 4.45269 11.1526 4.97838 11.1526C5.71592 11.1526 6.33577 10.9682 6.83792 10.5995C7.34008 10.2307 7.64608 9.69715 7.75592 8.99885H8.93285C8.85439 9.58731 8.65431 10.1248 8.33262 10.6112C8.01877 11.0977 7.57939 11.4861 7.01446 11.7764C6.45738 12.0667 5.77869 12.2118 4.97838 12.2118ZM9.56334 12L12.7646 7.41V7.62185L9.8458 3.40846H11.1522L13.4001 6.70385H13.5884L15.8716 3.40846H17.1192L14.118 7.66892L14.1063 7.45708L17.3546 12H16.0482L13.4825 8.38685H13.2942L10.8109 12H9.56334ZM22.4439 12.2118C21.675 12.2118 21.012 12.0745 20.4549 11.7999C19.8979 11.5253 19.4389 11.1644 19.0779 10.7172C18.717 10.2699 18.4463 9.79131 18.2659 9.28131C18.0933 8.77131 18.0069 8.28092 18.0069 7.81015V7.55123C18.0069 7.04123 18.0972 6.52731 18.2776 6.00946C18.4581 5.49161 18.7327 5.02085 19.1015 4.59715C19.4703 4.16562 19.9293 3.82038 20.4785 3.56146C21.0356 3.30254 21.6907 3.17308 22.4439 3.17308C23.1972 3.17308 23.8484 3.30254 24.3976 3.56146C24.9547 3.82038 25.4176 4.16562 25.7864 4.59715C26.1552 5.02085 26.4298 5.49161 26.6103 6.00946C26.7907 6.52731 26.8809 7.04123 26.8809 7.55123V7.81015C26.8809 8.28092 26.7907 8.77131 26.6103 9.28131C26.4376 9.79131 26.1709 10.2699 25.8099 10.7172C25.449 11.1644 24.99 11.5253 24.4329 11.7999C23.8759 12.0745 23.2129 12.2118 22.4439 12.2118ZM22.4439 11.1526C22.9461 11.1526 23.3973 11.0585 23.7974 10.8702C24.2054 10.6818 24.5506 10.4268 24.8331 10.1052C25.1156 9.77562 25.3313 9.40685 25.4804 8.99885C25.6295 8.583 25.704 8.14754 25.704 7.69246C25.704 7.21385 25.6295 6.76662 25.4804 6.35077C25.3313 5.93492 25.1156 5.57008 24.8331 5.25623C24.5506 4.93454 24.2054 4.68346 23.7974 4.503C23.3973 4.32254 22.9461 4.23231 22.4439 4.23231C21.9418 4.23231 21.4867 4.32254 21.0787 4.503C20.6786 4.68346 20.3373 4.93454 20.0548 5.25623C19.7723 5.57008 19.5566 5.93492 19.4075 6.35077C19.2584 6.76662 19.1839 7.21385 19.1839 7.69246C19.1839 8.14754 19.2584 8.583 19.4075 8.99885C19.5566 9.40685 19.7723 9.77562 20.0548 10.1052C20.3373 10.4268 20.6786 10.6818 21.0787 10.8702C21.4867 11.0585 21.9418 11.1526 22.4439 11.1526ZM28.6792 12V5.71523H29.5736V8.41038H29.4324C29.4324 7.79054 29.5148 7.26877 29.6795 6.84508C29.8522 6.41354 30.1111 6.08792 30.4563 5.86823C30.8015 5.64069 31.237 5.52692 31.7627 5.52692H31.8098C32.6022 5.52692 33.1868 5.77408 33.5634 6.26838C33.9479 6.76269 34.1401 7.47669 34.1401 8.41038V12H33.0102V8.175C33.0102 7.68854 32.8729 7.30015 32.5983 7.00985C32.3237 6.71169 31.9471 6.56262 31.4685 6.56262C30.9742 6.56262 30.574 6.71562 30.268 7.02162C29.962 7.32762 29.809 7.73562 29.809 8.24562V12H28.6792ZM38.9443 12.2118C38.3951 12.2118 37.9204 12.1177 37.5203 11.9294C37.1201 11.7411 36.7945 11.4939 36.5434 11.1879C36.2923 10.8741 36.104 10.5249 35.9785 10.1405C35.8608 9.756 35.8019 9.36369 35.8019 8.96354V8.75169C35.8019 8.34369 35.8608 7.94746 35.9785 7.563C36.104 7.17854 36.2923 6.83331 36.5434 6.52731C36.7945 6.21346 37.1123 5.96631 37.4967 5.78585C37.889 5.59754 38.348 5.50338 38.8737 5.50338C39.5563 5.50338 40.1173 5.65246 40.5567 5.95062C41.0039 6.24092 41.3335 6.61754 41.5453 7.08046C41.765 7.54338 41.8749 8.03769 41.8749 8.56338V9.06946H36.2963V8.22208H41.051L40.7921 8.68108C40.7921 8.23385 40.7215 7.84938 40.5803 7.52769C40.439 7.19815 40.2272 6.94315 39.9447 6.76269C39.6623 6.58223 39.3053 6.492 38.8737 6.492C38.4265 6.492 38.0538 6.594 37.7556 6.798C37.4653 7.002 37.2456 7.28054 37.0966 7.63362C36.9553 7.98669 36.8847 8.39469 36.8847 8.85762C36.8847 9.30485 36.9553 9.70892 37.0966 10.0698C37.2456 10.4229 37.4732 10.7054 37.7792 10.9172C38.0852 11.1212 38.4736 11.2232 38.9443 11.2232C39.4386 11.2232 39.8388 11.1134 40.1448 10.8937C40.4586 10.674 40.6469 10.419 40.7097 10.1287H41.7689C41.6826 10.5602 41.51 10.9329 41.2511 11.2468C40.9922 11.5606 40.6666 11.7999 40.2743 11.9647C39.8819 12.1295 39.4386 12.2118 38.9443 12.2118Z" fill="#1E2128"/>
<path d="M47.4989 12.2236C46.73 12.2236 46.0592 12.0981 45.4864 11.847C44.9136 11.5881 44.4389 11.2428 44.0623 10.8113C43.6935 10.3798 43.4189 9.90115 43.2385 9.37546C43.058 8.84977 42.9678 8.32408 42.9678 7.79838V7.53946C42.9678 6.99808 43.058 6.46846 43.2385 5.95062C43.4189 5.43277 43.6896 4.962 44.0505 4.53831C44.4193 4.11462 44.8744 3.77723 45.4158 3.52615C45.965 3.27508 46.5966 3.14954 47.3106 3.14954C48.0874 3.14954 48.7739 3.29469 49.3702 3.585C49.9665 3.86746 50.4452 4.26369 50.8061 4.77369C51.167 5.27585 51.3749 5.86038 51.4298 6.52731H49.4997C49.4526 6.21346 49.3271 5.93885 49.1231 5.70346C48.9269 5.46808 48.6719 5.28369 48.3581 5.15031C48.0521 5.01692 47.7029 4.95023 47.3106 4.95023C46.934 4.95023 46.5966 5.01692 46.2985 5.15031C46.0082 5.28369 45.7571 5.472 45.5452 5.71523C45.3412 5.95846 45.1843 6.24877 45.0745 6.58615C44.9725 6.91569 44.9215 7.28054 44.9215 7.68069C44.9215 8.09654 44.9764 8.47708 45.0862 8.82231C45.2039 9.15969 45.3726 9.45392 45.5923 9.705C45.812 9.94823 46.0827 10.1365 46.4044 10.2699C46.7339 10.4033 47.0988 10.47 47.4989 10.47C48.0325 10.47 48.4954 10.3602 48.8877 10.1405C49.28 9.92077 49.5625 9.63046 49.7351 9.26954L49.4997 10.5877V8.53985H51.2768V10.3758C50.9081 10.9722 50.3981 11.4312 49.7468 11.7528C49.1035 12.0667 48.3542 12.2236 47.4989 12.2236ZM47.2518 8.91646V7.52769H51.983V8.91646H47.2518ZM57.3923 12.2236C56.6155 12.2236 55.9368 12.0902 55.3562 11.8235C54.7834 11.5488 54.3087 11.1918 53.9321 10.7525C53.5555 10.3052 53.273 9.82269 53.0847 9.30485C52.9043 8.787 52.814 8.28877 52.814 7.81015V7.55123C52.814 7.01769 52.9082 6.492 53.0965 5.97415C53.2926 5.44846 53.5829 4.97377 53.9674 4.55008C54.3519 4.12638 54.8305 3.789 55.4033 3.53792C55.976 3.279 56.639 3.14954 57.3923 3.14954C58.1455 3.14954 58.8085 3.279 59.3813 3.53792C59.954 3.789 60.4326 4.12638 60.8171 4.55008C61.2016 4.97377 61.4919 5.44846 61.688 5.97415C61.8842 6.492 61.9823 7.01769 61.9823 7.55123V7.81015C61.9823 8.28877 61.8881 8.787 61.6998 9.30485C61.5115 9.82269 61.229 10.3052 60.8524 10.7525C60.4758 11.1918 59.9972 11.5488 59.4166 11.8235C58.8438 12.0902 58.169 12.2236 57.3923 12.2236ZM57.3923 10.4229C57.8003 10.4229 58.1651 10.3523 58.4868 10.2111C58.8163 10.0698 59.0949 9.87369 59.3224 9.62262C59.5578 9.37154 59.7343 9.08123 59.852 8.75169C59.9697 8.42215 60.0286 8.06908 60.0286 7.69246C60.0286 7.29231 59.9658 6.92746 59.8403 6.59792C59.7226 6.26054 59.546 5.97023 59.3106 5.727C59.0831 5.47592 58.8085 5.28369 58.4868 5.15031C58.1651 5.01692 57.8003 4.95023 57.3923 4.95023C56.9843 4.95023 56.6194 5.01692 56.2977 5.15031C55.976 5.28369 55.6975 5.47592 55.4621 5.727C55.2346 5.97023 55.0619 6.26054 54.9443 6.59792C54.8266 6.92746 54.7677 7.29231 54.7677 7.69246C54.7677 8.06908 54.8266 8.42215 54.9443 8.75169C55.0619 9.08123 55.2346 9.37154 55.4621 9.62262C55.6975 9.87369 55.976 10.0698 56.2977 10.2111C56.6194 10.3523 56.9843 10.4229 57.3923 10.4229Z" fill="#F7870E"/>
</svg>
