<svg width="16" height="16" viewBox="0 0 16 16" fill="none" xmlns="http://www.w3.org/2000/svg">
<path d="M14.5372 6.69303H14.0002V6.66536H8.00016V9.33203H11.7678C11.2182 10.8844 9.74116 11.9987 8.00016 11.9987C5.79116 11.9987 4.00016 10.2077 4.00016 7.9987C4.00016 5.7897 5.79116 3.9987 8.00016 3.9987C9.01983 3.9987 9.9475 4.38336 10.6538 5.0117L12.5395 3.12603C11.3488 2.01636 9.75616 1.33203 8.00016 1.33203C4.3185 1.33203 1.3335 4.31703 1.3335 7.9987C1.3335 11.6804 4.3185 14.6654 8.00016 14.6654C11.6818 14.6654 14.6668 11.6804 14.6668 7.9987C14.6668 7.5517 14.6208 7.11536 14.5372 6.69303Z" fill="#FFC107"/>
<path d="M2.10205 4.8957L4.29238 6.50203C4.88505 5.0347 6.32038 3.9987 8.00005 3.9987C9.01972 3.9987 9.94738 4.38336 10.6537 5.0117L12.5394 3.12603C11.3487 2.01636 9.75605 1.33203 8.00005 1.33203C5.43938 1.33203 3.21872 2.7777 2.10205 4.8957Z" fill="#FF3D00"/>
<path d="M7.99994 14.6669C9.72194 14.6669 11.2866 14.0079 12.4696 12.9362L10.4063 11.1902C9.71446 11.7164 8.86909 12.0009 7.99994 12.0002C6.26594 12.0002 4.79361 10.8946 4.23894 9.35156L2.06494 11.0266C3.16827 13.1856 5.40894 14.6669 7.99994 14.6669Z" fill="#4CAF50"/>
<path d="M14.537 6.69564H14V6.66797H8V9.33464H11.7677C11.5047 10.0734 11.0311 10.719 10.4053 11.1916L10.4063 11.191L12.4697 12.937C12.3237 13.0696 14.6667 11.3346 14.6667 8.0013C14.6667 7.5543 14.6207 7.11797 14.537 6.69564Z" fill="#1976D2"/>
</svg>
