<svg width="24" height="24" viewBox="0 0 24 24" fill="none" xmlns="http://www.w3.org/2000/svg">
<circle cx="3.40426" cy="3.40426" r="3.40426" transform="matrix(-1 0 0 1 15.6172 5)" stroke="white" stroke-width="1.5"/>
<path d="M6.25537 16.8604C6.25537 16.1282 6.71567 15.475 7.40524 15.2287V15.2287C10.5141 14.1184 13.9115 14.1184 17.0204 15.2287V15.2287C17.71 15.475 18.1703 16.1282 18.1703 16.8604V17.98C18.1703 18.9905 17.2752 19.7668 16.2748 19.6239L15.9412 19.5763C13.4682 19.223 10.9575 19.223 8.48442 19.5763L8.15087 19.6239C7.15044 19.7668 6.25537 18.9905 6.25537 17.98V16.8604Z" stroke="white" stroke-width="1.5"/>
<path d="M17.3194 11.9042C18.7966 11.9042 19.9941 10.7067 19.9941 9.22946C19.9941 7.75222 18.7966 6.55469 17.3194 6.55469" stroke="white" stroke-width="1.5" stroke-linecap="round"/>
<path d="M20.2486 18.0075L20.5106 18.0449C21.2967 18.1572 22 17.5473 22 16.7533V15.8736C22 15.2983 21.6383 14.7851 21.0965 14.5916C20.5561 14.3985 20.0045 14.2482 19.4468 14.1406" stroke="white" stroke-width="1.5" stroke-linecap="round"/>
<path d="M6.68063 11.9042C5.2034 11.9042 4.00586 10.7067 4.00586 9.22946C4.00586 7.75222 5.2034 6.55469 6.68063 6.55469" stroke="white" stroke-width="1.5" stroke-linecap="round"/>
<path d="M3.75143 18.0075L3.48935 18.0449C2.7033 18.1572 2.00003 17.5473 2.00003 16.7533V15.8736C2.00003 15.2983 2.3617 14.7851 2.9035 14.5916C3.44395 14.3985 3.99549 14.2482 4.55322 14.1406" stroke="white" stroke-width="1.5" stroke-linecap="round"/>
</svg>
