<svg width="146" height="14" viewBox="0 0 146 14" fill="none" xmlns="http://www.w3.org/2000/svg">
<path d="M0.191939 11V0.818182H3.63228C4.43105 0.818182 5.08398 0.962358 5.59109 1.25071C6.1015 1.53575 6.47934 1.92188 6.72461 2.40909C6.96987 2.89631 7.09251 3.43987 7.09251 4.03977C7.09251 4.63968 6.96987 5.1849 6.72461 5.67543C6.48266 6.16596 6.10813 6.55705 5.60103 6.84872C5.09393 7.13707 4.44431 7.28125 3.65217 7.28125H1.18626V6.1875H3.61239C4.15927 6.1875 4.59843 6.09304 4.92987 5.90412C5.2613 5.7152 5.5016 5.45999 5.65075 5.13849C5.80321 4.81368 5.87944 4.44744 5.87944 4.03977C5.87944 3.6321 5.80321 3.26752 5.65075 2.94602C5.5016 2.62453 5.25965 2.37263 4.92489 2.19034C4.59014 2.00473 4.14601 1.91193 3.59251 1.91193H1.42489V11H0.191939ZM11.9398 11.1591C11.2504 11.1591 10.6455 10.995 10.1252 10.6669C9.60813 10.3388 9.20378 9.87973 8.91211 9.28977C8.62376 8.69981 8.47958 8.01042 8.47958 7.22159C8.47958 6.42614 8.62376 5.73177 8.91211 5.13849C9.20378 4.54522 9.60813 4.08452 10.1252 3.75639C10.6455 3.42827 11.2504 3.2642 11.9398 3.2642C12.6292 3.2642 13.2324 3.42827 13.7495 3.75639C14.2698 4.08452 14.6742 4.54522 14.9625 5.13849C15.2542 5.73177 15.4 6.42614 15.4 7.22159C15.4 8.01042 15.2542 8.69981 14.9625 9.28977C14.6742 9.87973 14.2698 10.3388 13.7495 10.6669C13.2324 10.995 12.6292 11.1591 11.9398 11.1591ZM11.9398 10.1051C12.4635 10.1051 12.8944 9.97088 13.2324 9.70241C13.5705 9.43395 13.8207 9.08097 13.9831 8.64347C14.1455 8.20597 14.2267 7.73201 14.2267 7.22159C14.2267 6.71117 14.1455 6.23556 13.9831 5.79474C13.8207 5.35393 13.5705 4.99763 13.2324 4.72585C12.8944 4.45407 12.4635 4.31818 11.9398 4.31818C11.4161 4.31818 10.9853 4.45407 10.6472 4.72585C10.3091 4.99763 10.0589 5.35393 9.89648 5.79474C9.73408 6.23556 9.65288 6.71117 9.65288 7.22159C9.65288 7.73201 9.73408 8.20597 9.89648 8.64347C10.0589 9.08097 10.3091 9.43395 10.6472 9.70241C10.9853 9.97088 11.4161 10.1051 11.9398 10.1051ZM18.6614 11L16.3347 3.36364H17.5676L19.2182 9.21023H19.2978L20.9284 3.36364H22.1813L23.7921 9.19034H23.8716L25.5222 3.36364H26.7551L24.4284 11H23.275L21.6046 5.13352H21.4853L19.8148 11H18.6614ZM31.2482 11.1591C30.5124 11.1591 29.8777 10.9967 29.3441 10.6719C28.8138 10.3438 28.4045 9.88636 28.1161 9.29972C27.8311 8.70975 27.6886 8.02367 27.6886 7.24148C27.6886 6.45928 27.8311 5.76989 28.1161 5.1733C28.4045 4.57339 28.8055 4.10606 29.3192 3.77131C29.8363 3.43324 30.4395 3.2642 31.1289 3.2642C31.5266 3.2642 31.9194 3.33049 32.3072 3.46307C32.695 3.59564 33.0479 3.81108 33.3661 4.10938C33.6843 4.40436 33.9379 4.79545 34.1268 5.28267C34.3157 5.76989 34.4102 6.36979 34.4102 7.08239V7.57955H28.5238V6.56534H33.217C33.217 6.13447 33.1308 5.75 32.9585 5.41193C32.7894 5.07386 32.5475 4.80705 32.2326 4.61151C31.921 4.41596 31.5531 4.31818 31.1289 4.31818C30.6616 4.31818 30.2572 4.43419 29.9158 4.66619C29.5778 4.89489 29.3176 5.19318 29.1353 5.56108C28.953 5.92898 28.8619 6.32339 28.8619 6.74432V7.42045C28.8619 7.99716 28.9613 8.48603 29.1602 8.88707C29.3623 9.2848 29.6424 9.58807 30.0004 9.79688C30.3583 10.0024 30.7743 10.1051 31.2482 10.1051C31.5565 10.1051 31.8349 10.062 32.0835 9.97585C32.3353 9.88636 32.5524 9.75379 32.7347 9.57812C32.917 9.39915 33.0579 9.17708 33.1573 8.91193L34.2908 9.23011C34.1715 9.61458 33.971 9.95265 33.6893 10.2443C33.4076 10.5327 33.0595 10.758 32.6452 10.9205C32.2309 11.0795 31.7653 11.1591 31.2482 11.1591ZM36.195 11V3.36364H37.3285V4.51705H37.408C37.5472 4.1392 37.7991 3.83262 38.1637 3.5973C38.5283 3.36198 38.9393 3.24432 39.3967 3.24432C39.4828 3.24432 39.5906 3.24597 39.7198 3.24929C39.8491 3.2526 39.9469 3.25758 40.0131 3.2642V4.45739C39.9734 4.44744 39.8822 4.43253 39.7397 4.41264C39.6005 4.38944 39.453 4.37784 39.2972 4.37784C38.926 4.37784 38.5946 4.45573 38.3029 4.61151C38.0146 4.76397 37.7859 4.97609 37.6168 5.24787C37.4511 5.51634 37.3683 5.82292 37.3683 6.16761V11H36.195ZM44.3732 11.1591C43.6374 11.1591 43.0027 10.9967 42.4691 10.6719C41.9388 10.3438 41.5295 9.88636 41.2411 9.29972C40.9561 8.70975 40.8136 8.02367 40.8136 7.24148C40.8136 6.45928 40.9561 5.76989 41.2411 5.1733C41.5295 4.57339 41.9305 4.10606 42.4442 3.77131C42.9613 3.43324 43.5645 3.2642 44.2539 3.2642C44.6516 3.2642 45.0444 3.33049 45.4322 3.46307C45.82 3.59564 46.1729 3.81108 46.4911 4.10938C46.8093 4.40436 47.0629 4.79545 47.2518 5.28267C47.4407 5.76989 47.5352 6.36979 47.5352 7.08239V7.57955H41.6488V6.56534H46.342C46.342 6.13447 46.2558 5.75 46.0835 5.41193C45.9144 5.07386 45.6725 4.80705 45.3576 4.61151C45.046 4.41596 44.6781 4.31818 44.2539 4.31818C43.7866 4.31818 43.3822 4.43419 43.0408 4.66619C42.7028 4.89489 42.4426 5.19318 42.2603 5.56108C42.078 5.92898 41.9869 6.32339 41.9869 6.74432V7.42045C41.9869 7.99716 42.0863 8.48603 42.2852 8.88707C42.4873 9.2848 42.7674 9.58807 43.1254 9.79688C43.4833 10.0024 43.8993 10.1051 44.3732 10.1051C44.6815 10.1051 44.9599 10.062 45.2085 9.97585C45.4603 9.88636 45.6774 9.75379 45.8597 9.57812C46.042 9.39915 46.1829 9.17708 46.2823 8.91193L47.4158 9.23011C47.2965 9.61458 47.096 9.95265 46.8143 10.2443C46.5326 10.5327 46.1845 10.758 45.7702 10.9205C45.3559 11.0795 44.8903 11.1591 44.3732 11.1591ZM52.2035 11.1591C51.5671 11.1591 51.0053 10.9983 50.5181 10.6768C50.0309 10.352 49.6497 9.89465 49.3746 9.30469C49.0996 8.71141 48.962 8.01042 48.962 7.2017C48.962 6.39962 49.0996 5.7036 49.3746 5.11364C49.6497 4.52367 50.0326 4.06794 50.5231 3.74645C51.0136 3.42495 51.5804 3.2642 52.2234 3.2642C52.7205 3.2642 53.1133 3.34706 53.4016 3.51278C53.6933 3.67519 53.9154 3.8608 54.0678 4.0696C54.2236 4.27509 54.3446 4.44413 54.4308 4.5767H54.5302V0.818182H55.7035V11H54.57V9.8267H54.4308C54.3446 9.96591 54.2219 10.1416 54.0629 10.3537C53.9038 10.5625 53.6767 10.7498 53.3817 10.9155C53.0868 11.0779 52.694 11.1591 52.2035 11.1591ZM52.3626 10.1051C52.8332 10.1051 53.2309 9.98248 53.5558 9.73722C53.8806 9.48864 54.1275 9.1456 54.2965 8.7081C54.4656 8.26728 54.5501 7.75852 54.5501 7.18182C54.5501 6.61174 54.4672 6.11293 54.3015 5.68537C54.1358 5.2545 53.8905 4.91974 53.5657 4.68111C53.2409 4.43916 52.8398 4.31818 52.3626 4.31818C51.8654 4.31818 51.4511 4.44579 51.1197 4.70099C50.7915 4.95289 50.5446 5.29593 50.3789 5.73011C50.2165 6.16098 50.1353 6.64489 50.1353 7.18182C50.1353 7.72538 50.2182 8.21922 50.3839 8.66335C50.5529 9.10417 50.8015 9.45549 51.1296 9.71733C51.4611 9.97585 51.872 10.1051 52.3626 10.1051ZM62.1119 11V0.818182H63.2852V4.5767H63.3846C63.4708 4.44413 63.5901 4.27509 63.7425 4.0696C63.8983 3.8608 64.1204 3.67519 64.4087 3.51278C64.7004 3.34706 65.0948 3.2642 65.592 3.2642C66.235 3.2642 66.8017 3.42495 67.2923 3.74645C67.7828 4.06794 68.1656 4.52367 68.4407 5.11364C68.7158 5.7036 68.8533 6.39962 68.8533 7.2017C68.8533 8.01042 68.7158 8.71141 68.4407 9.30469C68.1656 9.89465 67.7844 10.352 67.2972 10.6768C66.81 10.9983 66.2482 11.1591 65.6119 11.1591C65.1213 11.1591 64.7286 11.0779 64.4336 10.9155C64.1386 10.7498 63.9116 10.5625 63.7525 10.3537C63.5934 10.1416 63.4708 9.96591 63.3846 9.8267H63.2454V11H62.1119ZM63.2653 7.18182C63.2653 7.75852 63.3498 8.26728 63.5188 8.7081C63.6879 9.1456 63.9348 9.48864 64.2596 9.73722C64.5844 9.98248 64.9821 10.1051 65.4528 10.1051C65.9433 10.1051 66.3526 9.97585 66.6808 9.71733C67.0122 9.45549 67.2608 9.10417 67.4265 8.66335C67.5955 8.21922 67.68 7.72538 67.68 7.18182C67.68 6.64489 67.5972 6.16098 67.4315 5.73011C67.2691 5.29593 67.0221 4.95289 66.6907 4.70099C66.3626 4.44579 65.9499 4.31818 65.4528 4.31818C64.9755 4.31818 64.5745 4.43916 64.2496 4.68111C63.9248 4.91974 63.6796 5.2545 63.5138 5.68537C63.3481 6.11293 63.2653 6.61174 63.2653 7.18182ZM71.1303 13.8636C70.9315 13.8636 70.7541 13.8471 70.5984 13.8139C70.4426 13.7841 70.3349 13.7543 70.2752 13.7244L70.5735 12.6903C70.8585 12.7633 71.1104 12.7898 71.3292 12.7699C71.5479 12.75 71.7418 12.6522 71.9109 12.4766C72.0832 12.3042 72.2406 12.0241 72.3832 11.6364L72.6019 11.0398L69.7781 3.36364H71.0508L73.1587 9.44886H73.2383L75.3462 3.36364H76.619L73.3775 12.1136C73.2317 12.508 73.051 12.8345 72.8356 13.093C72.6201 13.3549 72.3699 13.5488 72.0849 13.6747C71.8031 13.8007 71.485 13.8636 71.1303 13.8636ZM90.4574 4H89.2244C89.1515 3.64536 89.0239 3.33381 88.8416 3.06534C88.6626 2.79688 88.4439 2.5715 88.1854 2.3892C87.9302 2.2036 87.6468 2.06439 87.3352 1.97159C87.0237 1.87879 86.6989 1.83239 86.3608 1.83239C85.7443 1.83239 85.1858 1.98816 84.6854 2.29972C84.1882 2.61127 83.7921 3.07031 83.4972 3.67685C83.2055 4.28338 83.0597 5.02746 83.0597 5.90909C83.0597 6.79072 83.2055 7.5348 83.4972 8.14134C83.7921 8.74787 84.1882 9.20691 84.6854 9.51847C85.1858 9.83002 85.7443 9.9858 86.3608 9.9858C86.6989 9.9858 87.0237 9.93939 87.3352 9.84659C87.6468 9.75379 87.9302 9.61624 88.1854 9.43395C88.4439 9.24834 88.6626 9.02131 88.8416 8.75284C89.0239 8.48106 89.1515 8.16951 89.2244 7.81818H90.4574C90.3646 8.33854 90.1955 8.80421 89.9503 9.2152C89.705 9.62618 89.4001 9.97585 89.0355 10.2642C88.6709 10.5492 88.2616 10.7663 87.8075 10.9155C87.3568 11.0646 86.8745 11.1392 86.3608 11.1392C85.4924 11.1392 84.7202 10.9271 84.044 10.5028C83.3679 10.0786 82.8359 9.47538 82.4482 8.69318C82.0604 7.91098 81.8665 6.98295 81.8665 5.90909C81.8665 4.83523 82.0604 3.9072 82.4482 3.125C82.8359 2.3428 83.3679 1.73958 84.044 1.31534C84.7202 0.891098 85.4924 0.678977 86.3608 0.678977C86.8745 0.678977 87.3568 0.753551 87.8075 0.902699C88.2616 1.05185 88.6709 1.2706 89.0355 1.55895C89.4001 1.84399 89.705 2.192 89.9503 2.60298C90.1955 3.01065 90.3646 3.47633 90.4574 4ZM92.9643 0.818182L95.5893 5.05398H95.6689L98.2939 0.818182H99.7456L96.5439 5.90909L99.7456 11H98.2939L95.6689 6.84375H95.5893L92.9643 11H91.5126L94.7939 5.90909L91.5126 0.818182H92.9643ZM109.777 5.90909C109.777 6.98295 109.583 7.91098 109.195 8.69318C108.808 9.47538 108.276 10.0786 107.599 10.5028C106.923 10.9271 106.151 11.1392 105.283 11.1392C104.414 11.1392 103.642 10.9271 102.966 10.5028C102.29 10.0786 101.758 9.47538 101.37 8.69318C100.982 7.91098 100.788 6.98295 100.788 5.90909C100.788 4.83523 100.982 3.9072 101.37 3.125C101.758 2.3428 102.29 1.73958 102.966 1.31534C103.642 0.891098 104.414 0.678977 105.283 0.678977C106.151 0.678977 106.923 0.891098 107.599 1.31534C108.276 1.73958 108.808 2.3428 109.195 3.125C109.583 3.9072 109.777 4.83523 109.777 5.90909ZM108.584 5.90909C108.584 5.02746 108.436 4.28338 108.141 3.67685C107.85 3.07031 107.454 2.61127 106.953 2.29972C106.456 1.98816 105.899 1.83239 105.283 1.83239C104.666 1.83239 104.108 1.98816 103.607 2.29972C103.11 2.61127 102.714 3.07031 102.419 3.67685C102.127 4.28338 101.982 5.02746 101.982 5.90909C101.982 6.79072 102.127 7.5348 102.419 8.14134C102.714 8.74787 103.11 9.20691 103.607 9.51847C104.108 9.83002 104.666 9.9858 105.283 9.9858C105.899 9.9858 106.456 9.83002 106.953 9.51847C107.454 9.20691 107.85 8.74787 108.141 8.14134C108.436 7.5348 108.584 6.79072 108.584 5.90909ZM112.864 6.40625V11H111.691V3.36364H112.825V4.55682H112.924C113.103 4.16903 113.375 3.85748 113.739 3.62216C114.104 3.38352 114.575 3.2642 115.151 3.2642C115.668 3.2642 116.121 3.37027 116.509 3.58239C116.896 3.79119 117.198 4.10938 117.413 4.53693C117.629 4.96117 117.737 5.49811 117.737 6.14773V11H116.563V6.22727C116.563 5.62737 116.407 5.16004 116.096 4.82528C115.784 4.48722 115.357 4.31818 114.813 4.31818C114.439 4.31818 114.104 4.39938 113.809 4.56179C113.517 4.72419 113.287 4.96117 113.118 5.27273C112.949 5.58428 112.864 5.96212 112.864 6.40625ZM123.082 11.1591C122.346 11.1591 121.712 10.9967 121.178 10.6719C120.648 10.3438 120.238 9.88636 119.95 9.29972C119.665 8.70975 119.523 8.02367 119.523 7.24148C119.523 6.45928 119.665 5.76989 119.95 5.1733C120.238 4.57339 120.64 4.10606 121.153 3.77131C121.67 3.43324 122.273 3.2642 122.963 3.2642C123.361 3.2642 123.753 3.33049 124.141 3.46307C124.529 3.59564 124.882 3.81108 125.2 4.10938C125.518 4.40436 125.772 4.79545 125.961 5.28267C126.15 5.76989 126.244 6.36979 126.244 7.08239V7.57955H120.358V6.56534H125.051C125.051 6.13447 124.965 5.75 124.792 5.41193C124.623 5.07386 124.381 4.80705 124.067 4.61151C123.755 4.41596 123.387 4.31818 122.963 4.31818C122.496 4.31818 122.091 4.43419 121.75 4.66619C121.412 4.89489 121.152 5.19318 120.969 5.56108C120.787 5.92898 120.696 6.32339 120.696 6.74432V7.42045C120.696 7.99716 120.795 8.48603 120.994 8.88707C121.196 9.2848 121.476 9.58807 121.834 9.79688C122.192 10.0024 122.608 10.1051 123.082 10.1051C123.39 10.1051 123.669 10.062 123.917 9.97585C124.169 9.88636 124.386 9.75379 124.569 9.57812C124.751 9.39915 124.892 9.17708 124.991 8.91193L126.125 9.23011C126.006 9.61458 125.805 9.95265 125.523 10.2443C125.242 10.5327 124.894 10.758 124.479 10.9205C124.065 11.0795 123.599 11.1591 123.082 11.1591ZM134.78 4.0696C134.698 3.80114 134.583 3.56084 134.437 3.34872C134.295 3.13329 134.122 2.94934 133.92 2.79688C133.721 2.64441 133.493 2.53007 133.234 2.45383C132.976 2.37429 132.694 2.33452 132.389 2.33452C131.842 2.33452 131.355 2.47206 130.927 2.74716C130.5 3.02225 130.163 3.42661 129.918 3.96023C129.676 4.49053 129.555 5.13684 129.555 5.89915C129.555 6.66809 129.676 7.31937 129.918 7.85298C130.16 8.3866 130.497 8.79261 130.927 9.07102C131.358 9.34612 131.859 9.48366 132.429 9.48366C132.946 9.48366 133.393 9.38423 133.771 9.18537C134.152 8.98651 134.446 8.70478 134.651 8.3402C134.857 7.9723 134.959 7.54143 134.959 7.04759L135.377 7.11222H132.613V5.67045H136.744V6.89347C136.744 7.76515 136.559 8.51918 136.187 9.15554C135.816 9.7919 135.306 10.2824 134.656 10.6271C134.006 10.9685 133.261 11.1392 132.419 11.1392C131.481 11.1392 130.657 10.9287 129.948 10.5078C129.242 10.0836 128.69 9.48201 128.292 8.70312C127.898 7.92093 127.701 6.9929 127.701 5.91903C127.701 5.09706 127.817 4.36293 128.049 3.71662C128.284 3.07031 128.612 2.52178 129.033 2.07102C129.454 1.61695 129.948 1.27225 130.515 1.03693C131.081 0.798295 131.698 0.678977 132.364 0.678977C132.928 0.678977 133.453 0.761837 133.94 0.927557C134.427 1.08996 134.86 1.32197 135.238 1.62358C135.619 1.92519 135.932 2.28314 136.177 2.69744C136.423 3.11174 136.583 3.56913 136.66 4.0696H134.78ZM141.779 11.1491C141.033 11.1491 140.387 10.9851 139.84 10.657C139.293 10.3288 138.869 9.86979 138.567 9.27983C138.269 8.68987 138.12 8.00047 138.12 7.21165C138.12 6.42282 138.269 5.73177 138.567 5.13849C138.869 4.54522 139.293 4.08452 139.84 3.75639C140.387 3.42827 141.033 3.2642 141.779 3.2642C142.525 3.2642 143.171 3.42827 143.718 3.75639C144.265 4.08452 144.688 4.54522 144.986 5.13849C145.287 5.73177 145.438 6.42282 145.438 7.21165C145.438 8.00047 145.287 8.68987 144.986 9.27983C144.688 9.86979 144.265 10.3288 143.718 10.657C143.171 10.9851 142.525 11.1491 141.779 11.1491ZM141.789 9.70739C142.193 9.70739 142.531 9.59635 142.803 9.37429C143.075 9.14891 143.277 8.8473 143.41 8.46946C143.546 8.09162 143.614 7.67069 143.614 7.20668C143.614 6.73935 143.546 6.31676 143.41 5.93892C143.277 5.55777 143.075 5.2545 142.803 5.02912C142.531 4.80374 142.193 4.69105 141.789 4.69105C141.375 4.69105 141.03 4.80374 140.755 5.02912C140.483 5.2545 140.279 5.55777 140.143 5.93892C140.011 6.31676 139.945 6.73935 139.945 7.20668C139.945 7.67069 140.011 8.09162 140.143 8.46946C140.279 8.8473 140.483 9.14891 140.755 9.37429C141.03 9.59635 141.375 9.70739 141.789 9.70739Z" fill="#212121"/>
</svg>
