<svg xmlns="http://www.w3.org/2000/svg" width="430" height="430" style="width:100%;height:100%;transform:translate3d(0,0,0);content-visibility:visible" viewBox="0 0 430 430"><defs><clipPath id="a"><path d="M0 0h430v430H0z"/></clipPath><clipPath id="b"><path d="M0 0h430v430H0z"/></clipPath></defs><g clip-path="url(#a)"><g clip-path="url(#b)" style="display:block"><path fill="none" stroke="#121330" stroke-linecap="round" stroke-linejoin="round" stroke-width="7" d="M20.138 53.458-20.138-53.458" class="primary" style="display:block" transform="translate(349.141 136.289)"/><path fill="#4EAFFA" d="M78.983 86.725h-103.97c-7.98-12.61 16.83-24.77 16.83-24.77l-3.07-149.68h76.47l-3.08 149.68s24.81 12.16 16.82 24.77z" class="tertiary" style="display:block" transform="translate(189.089 314.995)"/><g fill="#393346" style="display:block"><path d="M181.116 376.914s-24.813 12.163-16.828 24.771h51.96l.004-24.822-35.136.051z" class="quaternary"/><path d="M251.387 376.914s24.813 12.163 16.828 24.771c-8.475 0-56.96-.088-56.96-.088l-.004-24.823 40.136.14z" class="quaternary"/></g><path fill="#07A889" d="m-39.064-60.615.851 95.964h76.464L39.8-60.165l-78.864-.45z" class="secondary" style="display:block" transform="translate(215.87 192.419)"/><path fill="#F7C6BD" d="M-1.52 28.42h17.796c3.463 0 6.296-2.834 6.296-6.297v-29.49c0-11.579-9.473-21.053-21.052-21.053h-3.04c-11.579 0-21.052 9.474-21.052 21.053V7.367c0 11.579 9.473 21.053 21.052 21.053z" class="septenary" style="display:block" transform="translate(214.016 78.509)"/><path fill="#AF6836" d="M22.578 10.525c-.628-1.861-1.419-5.406-7.408-8.915C8.594-2.243 2.246 8.994-5.353 5.737c-9.363-4.013-15.596-.827-17.219 4.788-.036-1.155.093-2.22.247-3.216 1.561-10.067 10.326-17.834 20.813-17.834h3.04c8.332 0 15.581 4.912 18.985 11.986a20.849 20.849 0 0 1 2.065 9.064z" class="senary" style="display:block" transform="translate(214.382 60.581)"/><path fill="#07A889" d="M30.676 59.923-6.899 7.335l-41.772-58.461s20.829-22.345 36.208 4.192L14.708-10.77l33.963 45.203" class="secondary" style="display:block" transform="translate(146.942 97.146)"/><path fill="#07A889" d="M-57.95-7.08-1.643-.806l51.856-26.115S66.964-12.443 51.652 3.79L5.62 26.921l-63.723-4.941" class="secondary" style="display:block" transform="translate(312.225 138.649)"/><g style="display:block"><path fill="none" stroke="#EBE6EE" stroke-linecap="round" stroke-linejoin="round" stroke-width="5" d="m282.032 102.636 93.964-39.626-20.31-48.16-93.964 39.626 20.31 48.16z" class="quinary"/><path fill="#EBE6EE" d="m282.032 102.636 93.964-39.626-20.31-48.16-93.964 39.626 20.31 48.16z" class="quinary"/></g><path fill="none" stroke="#121330" stroke-linecap="round" stroke-linejoin="round" stroke-width="7" d="M26.77 87.24h51.96c7.985-12.608-16.828-24.771-16.828-24.771l3.084-149.683M26.782-50.755l-.02 137.982h-51.961C-33.184 74.619-8.371 62.456-8.371 62.456l-3.064-149.683" class="primary" style="display:block" transform="translate(189.089 314.995)"/><path fill="none" stroke="#121330" stroke-linecap="round" stroke-linejoin="round" stroke-width="7" d="M38.251-31.79v67.139h-76.464l-.038-70.698" class="primary" style="display:block" transform="translate(215.87 192.419)"/><path fill="none" stroke="#121330" stroke-linecap="round" stroke-linejoin="round" stroke-width="7" d="M-1.52 28.42h17.796c3.463 0 6.296-2.834 6.296-6.297v-29.49c0-11.579-9.473-21.053-21.052-21.053h-3.04c-11.579 0-21.052 9.474-21.052 21.053V7.367c0 11.579 9.473 21.053 21.052 21.053z" class="primary" style="display:block" transform="translate(214.016 78.509)"/><path fill="none" stroke="#121330" stroke-linecap="round" stroke-linejoin="round" stroke-width="7" d="M30.676 59.923-6.899 7.335l-41.772-58.461s20.829-22.345 36.208 4.192L14.708-10.77l33.963 45.203" class="primary" style="display:block" transform="translate(146.942 97.146)"/><path fill="none" stroke="#121330" stroke-linecap="round" stroke-linejoin="round" stroke-width="7" d="M29.346 0h-58.692" class="primary" style="display:block" transform="translate(224.958 131.579)"/><path fill="none" stroke="#121330" stroke-linecap="round" stroke-linejoin="round" stroke-width="7" d="M-57.95-7.08-1.643-.806l51.856-26.115S66.964-12.443 51.652 3.79L5.62 26.921l-63.723-4.941" class="primary" style="display:block" transform="translate(312.225 138.649)"/><path fill="none" stroke="#121330" stroke-linecap="round" stroke-linejoin="round" stroke-width="7" d="M-36.827 43.893 57.137 4.267l-20.31-48.16-93.964 39.626 20.31 48.16z" class="primary" style="display:block" transform="translate(318.859 58.743)"/></g></g></svg>