<svg xmlns="http://www.w3.org/2000/svg" width="430" height="430" style="width:100%;height:100%;transform:translate3d(0,0,0);content-visibility:visible" viewBox="0 0 430 430"><defs><clipPath id="a"><path d="M0 0h430v430H0z"/></clipPath><clipPath id="e"><path d="M0 0h430v430H0z"/></clipPath><clipPath id="d"><path d="M0 0h430v430H0z"/></clipPath><clipPath id="c"><path d="M0 0h430v430H0z"/></clipPath><clipPath id="b"><path d="M0 0h430v430H0z"/></clipPath></defs><g clip-path="url(#a)"><g clip-path="url(#b)" style="display:none"><g style="display:none"><path class="secondary"/><path class="secondary" style="mix-blend-mode:multiply"/></g><g style="display:none"><path class="tertiary"/><path class="tertiary" style="mix-blend-mode:multiply"/></g><g style="display:none"><path class="secondary"/><path class="secondary" style="mix-blend-mode:multiply"/></g><g style="display:none"><path class="tertiary"/><path class="tertiary" style="mix-blend-mode:multiply"/></g><path fill="none" class="primary" style="display:none"/><path fill="none" class="primary" style="display:none"/><path class="secondary" style="display:none"/><path class="secondary" style="mix-blend-mode:multiply;display:none"/><path class="tertiary" style="display:none"/><path class="tertiary" style="mix-blend-mode:multiply;display:none"/><path fill="none" class="primary" style="display:none"/><path class="quaternary" style="display:none"/><path class="quaternary" style="mix-blend-mode:multiply;display:none"/><g fill="none" style="display:none"><path class="primary"/><path class="primary"/></g><path class="quaternary" style="display:none"/><path class="quaternary" style="mix-blend-mode:multiply;display:none"/><path fill="none" class="primary" style="display:none"/></g><g clip-path="url(#c)" style="display:none"><g style="display:none"><path class="secondary"/><path class="secondary" style="mix-blend-mode:multiply"/></g><g style="display:none"><path fill="none" class="primary"/><path class="tertiary"/><path class="tertiary" style="mix-blend-mode:multiply"/><path fill="none" class="primary"/></g><g style="display:none"><path class="secondary"/><path class="secondary" style="mix-blend-mode:multiply"/></g><g style="display:none"><path fill="none" class="primary"/><path class="tertiary"/><path class="tertiary" style="mix-blend-mode:multiply"/><path fill="none" class="primary"/></g><path class="secondary" style="display:none"/><path class="secondary" style="mix-blend-mode:multiply;display:none"/><path class="tertiary" style="display:none"/><path class="tertiary" style="mix-blend-mode:multiply;display:none"/><path fill="none" class="primary" style="display:none"/><path class="quaternary" style="display:none"/><path class="quaternary" style="mix-blend-mode:multiply;display:none"/><g fill="none" style="display:none"><path class="primary"/><path class="primary"/></g></g><g clip-path="url(#d)" style="display:block"><g fill="#4AB3FC" style="display:block"><path d="M95 320.473c-24.853 0-45 20.147-45 45v12a3 3 0 0 0 3 3h124a3 3 0 0 0 3-3v-12c0-24.853-20.147-45-45-45H95z" class="secondary"/><path fill-opacity=".5" d="M-20-30c-24.853 0-45 20.147-45 45v12a3 3 0 0 0 3 3H62a3 3 0 0 0 3-3V15c0-24.853-20.147-45-45-45h-40z" class="secondary" style="mix-blend-mode:multiply" transform="translate(115 350.473)"/></g><g style="display:block"><path fill="none" stroke="#121330" stroke-linejoin="round" stroke-width="7" d="M95 320h40c24.853 0 45 20.147 45 45v15H50v-15c0-24.853 20.147-45 45-45zm50-55c0 16.569-13.431 30-30 30-16.569 0-30-13.431-30-30 0-16.569 13.431-30 30-30 16.569 0 30 13.431 30 30z" class="primary"/><path fill="#FFC638" d="M145 265c0 16.569-13.431 30-30 30-16.569 0-30-13.431-30-30 0-16.569 13.431-30 30-30 16.569 0 30 13.431 30 30z" class="tertiary"/><path fill="#FFC638" fill-opacity=".5" d="M30-42.5c0 16.569-13.431 30-30 30-16.569 0-30-13.431-30-30 0-16.569 13.431-30 30-30 16.569 0 30 13.431 30 30z" class="tertiary" style="mix-blend-mode:multiply" transform="translate(115 307.5)"/><path fill="none" stroke="#121330" stroke-linejoin="round" stroke-width="7" d="M145 265c0 16.569-13.431 30-30 30-16.569 0-30-13.431-30-30 0-16.569 13.431-30 30-30 16.569 0 30 13.431 30 30z" class="primary"/></g><g fill="#4AB3FC" style="display:block"><path d="M295 320c-24.853 0-45 20.147-45 45v12a3 3 0 0 0 3 3h124a3 3 0 0 0 3-3v-12c0-24.853-20.147-45-45-45h-40z" class="secondary"/><path fill-opacity=".5" d="M-20-30c-24.853 0-45 20.147-45 45v12a3 3 0 0 0 3 3H62a3 3 0 0 0 3-3V15c0-24.853-20.147-45-45-45h-40z" class="secondary" style="mix-blend-mode:multiply" transform="translate(315 350)"/></g><g style="display:block"><path fill="none" stroke="#121330" stroke-linejoin="round" stroke-width="7" d="M295 320c-24.853 0-45 20.147-45 45v15h130v-15c0-24.853-20.147-45-45-45h-40zm50-55c0 16.569-13.431 30-30 30-16.569 0-30-13.431-30-30 0-16.569 13.431-30 30-30 16.569 0 30 13.431 30 30z" class="primary"/><path fill="#FFC638" d="M345 265c0 16.569-13.431 30-30 30-16.569 0-30-13.431-30-30 0-16.569 13.431-30 30-30 16.569 0 30 13.431 30 30z" class="tertiary"/><path fill="#FFC638" fill-opacity=".5" d="M30-42.5c0 16.569-13.431 30-30 30-16.569 0-30-13.431-30-30 0-16.569 13.431-30 30-30 16.569 0 30 13.431 30 30z" class="tertiary" style="mix-blend-mode:multiply" transform="translate(315 307.5)"/><path fill="none" stroke="#121330" stroke-linejoin="round" stroke-width="7" d="M345 265c0 16.569-13.431 30-30 30-16.569 0-30-13.431-30-30 0-16.569 13.431-30 30-30 16.569 0 30 13.431 30 30z" class="primary"/></g><path fill="#4AB3FC" d="M-35-40c-30.376 0-55 24.624-55 55v22a3 3 0 0 0 3 3H87a3 3 0 0 0 3-3V15c0-30.376-24.624-55-55-55h-70z" class="secondary" style="display:block" transform="translate(215 360)"/><g opacity=".3" style="mix-blend-mode:multiply;display:block"><path fill="#4AB3FC" d="M125 375c0-30.376 24.624-55 55-55h30c-30.376 0-55 24.624-55 55v25h-27a3 3 0 0 1-3-3v-22z" class="secondary" opacity="1"/></g><path fill="#FFC638" d="M0 45c24.853 0 45-20.147 45-45S24.853-45 0-45-45-24.853-45 0s20.147 45 45 45z" class="tertiary" style="display:block" transform="translate(215 250)"/><g opacity=".3" style="mix-blend-mode:multiply;display:block"><path fill="#FFC638" d="M240 285a45.7 45.7 0 0 0 3.446-.13A44.812 44.812 0 0 1 215 295c-24.853 0-45-20.147-45-45 0-23.693 18.311-43.11 41.553-44.87C201.45 213.382 195 225.938 195 240c0 24.853 20.147 45 45 45z" class="tertiary" opacity="1"/></g><path fill="none" stroke="#121330" stroke-linejoin="round" stroke-width="7" d="M-35 17.5c-30.376 0-55 24.624-55 55v25H90v-25c0-30.376-24.624-55-55-55h-70zm80-70c0 24.853-20.147 45-45 45s-45-20.147-45-45 20.147-45 45-45 45 20.147 45 45z" class="primary" style="display:block" transform="translate(215 302.5)"/><path fill="#EBE6EE" d="M-100-57.869c0-10.177 8.954-18.427 20-18.427H80c11.046 0 20 8.25 20 18.427v73.708c0 10.177-8.954 18.427-20 18.427H23.333L2.496 63.063c-1.187 1.641-3.805 1.641-4.992 0l-20.837-28.797H-80c-11.046 0-20-8.25-20-18.427v-73.708z" class="quaternary" style="display:none" transform="translate(215 106.296)"/><g opacity=".5" style="mix-blend-mode:multiply;display:none"><path fill="#EBE6EE" d="M135 30c-11.046 0-20 8.134-20 18.167v72.666c0 10.033 8.954 18.167 20 18.167h25c-11.046 0-20-8.134-20-18.167V48.167C140 38.134 148.954 30 160 30h-25z" class="quaternary" opacity="1"/></g><path fill="none" stroke="#121330" stroke-linecap="round" stroke-linejoin="round" stroke-width="7" d="M215 60v50m.234-25H240m-50 0h25.234M115 50c0-11.046 8.954-20 20-20h160c11.046 0 20 8.954 20 20v70c0 11.046-8.954 20-20 20h-56.667L215 175l-23.333-35H135c-11.046 0-20-8.954-20-20V50z" class="primary" style="display:none"/><path fill="#EBE6EE" d="M-100-57.869c0-10.177 8.954-18.427 20-18.427H80c11.046 0 20 8.25 20 18.427v73.708c0 10.177-8.954 18.427-20 18.427H23.333L2.496 63.063c-1.187 1.641-3.805 1.641-4.992 0l-20.837-28.797H-80c-11.046 0-20-8.25-20-18.427v-73.708z" class="quaternary" style="display:block" transform="translate(215 106.296)"/><g opacity=".5" style="mix-blend-mode:multiply;display:block"><path fill="#EBE6EE" d="M135 30c-11.046 0-20 8.134-20 18.167v72.666c0 10.033 8.954 18.167 20 18.167h25c-11.046 0-20-8.134-20-18.167V48.167C140 38.134 148.954 30 160 30h-25z" class="quaternary" opacity="1"/></g><path fill="none" stroke="#121330" stroke-linecap="round" stroke-linejoin="round" stroke-width="7" d="M215 60v50m-25-25h50M115 50c0-11.046 8.954-20 20-20h160c11.046 0 20 8.954 20 20v70c0 11.046-8.954 20-20 20h-56.667L215 175l-23.333-35H135c-11.046 0-20-8.954-20-20V50z" class="primary" style="display:block"/><path class="quaternary" style="display:none"/><path class="quaternary" style="mix-blend-mode:multiply;display:none"/><path fill="none" class="primary" style="display:none"/></g><g clip-path="url(#e)" style="display:none"><g style="display:none"><path class="secondary"/><path class="secondary" style="mix-blend-mode:multiply"/></g><path fill="none" class="primary" style="display:none"/><g style="display:none"><path class="tertiary"/><path class="tertiary" style="mix-blend-mode:multiply"/><path fill="none" class="primary"/></g><g style="display:none"><path class="secondary"/><path class="secondary" style="mix-blend-mode:multiply"/></g><path fill="none" class="primary" style="display:none"/><g style="display:none"><path class="tertiary"/><path class="tertiary" style="mix-blend-mode:multiply"/><path fill="none" class="primary"/></g><path class="secondary" style="display:none"/><path class="secondary" style="mix-blend-mode:multiply;display:none"/><path fill="none" class="primary" style="display:none"/><path class="tertiary" style="display:none"/><path class="tertiary" style="mix-blend-mode:multiply;display:none"/><path fill="none" class="primary" style="display:none"/><path class="quaternary" style="display:none"/><path class="quaternary" style="mix-blend-mode:multiply;display:none"/><g fill="none" style="display:none"><path class="primary"/><path class="primary"/></g></g></g></svg>