<svg xmlns="http://www.w3.org/2000/svg" width="430" height="430" style="width:100%;height:100%;transform:translate3d(0,0,0);content-visibility:visible" viewBox="0 0 430 430"><defs><clipPath id="f"><path d="M0 0h430v430H0z"/></clipPath><clipPath id="o"><path d="M0 0h430v430H0z"/></clipPath><clipPath id="m"><path d="M0 0h430v430H0z"/></clipPath><clipPath id="k"><path d="M0 0h430v430H0z"/></clipPath><clipPath id="i"><path d="M0 0h430v430H0z"/></clipPath><clipPath id="g"><path d="M0 0h430v430H0z"/></clipPath><mask id="p" mask-type="alpha"><use xmlns:ns1="http://www.w3.org/1999/xlink" ns1:href="#a"/></mask><mask id="n" mask-type="alpha"><use xmlns:ns2="http://www.w3.org/1999/xlink" ns2:href="#b"/></mask><mask id="l" mask-type="alpha"><use xmlns:ns3="http://www.w3.org/1999/xlink" ns3:href="#c"/></mask><mask id="j" mask-type="alpha"><use xmlns:ns4="http://www.w3.org/1999/xlink" ns4:href="#d"/></mask><mask id="h" mask-type="alpha"><use xmlns:ns5="http://www.w3.org/1999/xlink" ns5:href="#e"/></mask><g id="a" style="display:none"><path fill-opacity="0" stroke-linecap="round" stroke-linejoin="round" class="secondary"/><path/></g><g id="b" style="display:block"><path fill-opacity="0" stroke="#F24C00" stroke-linecap="round" stroke-linejoin="round" stroke-width="4" d="M191.004 360.97c-.032 37.971-.026 48.993-.026 48.993l-25.992-16.013-26.008 15.986s-.004-11.005.026-49.005" class="secondary"/><path fill="#F24C00" d="M191.004 360.97c-.032 37.971-.026 48.993-.026 48.993l-25.992-16.013-26.008 15.986s-.004-11.005.026-49.005"/></g><g id="c" style="display:none"><path fill-opacity="0" stroke-linecap="round" stroke-linejoin="round" class="tertiary"/><path class="tertiary"/></g><g id="d" style="display:none"><path fill-opacity="0" stroke-linecap="round" stroke-linejoin="round" class="tertiary"/><path class="tertiary"/></g><g id="e" style="display:none"><path fill-opacity="0" stroke-linecap="round" stroke-linejoin="round" class="tertiary"/><path class="tertiary"/></g></defs><g clip-path="url(#f)"><g clip-path="url(#g)" style="display:none"><g style="display:none"><path fill="none" class="tertiary"/><path class="tertiary"/></g><g mask="url(#h)" style="mix-blend-mode:multiply;display:none"><path class="tertiary"/></g><g style="display:none"><path fill="none" class="secondary"/><path class="secondary"/></g><g style="display:none"><path fill="none" class="secondary"/><path class="secondary"/></g><path class="secondary" style="mix-blend-mode:multiply;display:none"/><g style="display:none"><path fill="none" class="secondary"/><path class="secondary"/></g><path fill="none" class="senary" style="display:none"/><path class="secondary" style="mix-blend-mode:multiply;display:none"/><g style="display:none"><path fill="none" class="secondary"/><path class="secondary"/></g><path class="secondary" style="mix-blend-mode:multiply;display:none"/><path class="secondary" style="mix-blend-mode:multiply;display:none"/><g style="display:none"><path fill="none" class="secondary"/><path class="secondary"/></g><path class="secondary" style="mix-blend-mode:multiply;display:none"/><path fill="none" class="primary" style="display:none"/><path fill="none" class="primary" style="display:none"/><path fill="none" class="primary" style="display:none"/><path fill="none" class="primary" style="display:none"/><path fill="none" class="primary" style="display:none"/><path fill="none" class="primary" style="display:none"/><path fill="none" class="primary" style="display:none"/><path fill="none" class="primary" style="display:none"/><path fill="none" class="primary" style="display:none"/><path fill="none" class="primary" style="display:none"/><path fill="none" class="primary" style="display:none"/><path fill="none" class="primary" style="display:none"/></g><g clip-path="url(#i)" style="display:none"><g style="display:none"><path fill="none" class="tertiary"/><path class="tertiary"/></g><g mask="url(#j)" style="mix-blend-mode:multiply;display:none"><path class="tertiary"/></g><g style="display:none"><path fill="none" class="secondary"/><path class="secondary"/></g><g style="display:none"><path fill="none" class="secondary"/><path class="secondary"/></g><path class="secondary" style="mix-blend-mode:multiply;display:none"/><g style="display:none"><path fill="none" class="secondary"/><path class="secondary"/></g><path class="secondary" style="mix-blend-mode:multiply;display:none"/><path class="secondary" style="mix-blend-mode:multiply;display:none"/><g style="display:none"><path fill="none" class="secondary"/><path class="secondary"/></g><path class="secondary" style="mix-blend-mode:multiply;display:none"/><path class="secondary" style="mix-blend-mode:multiply;display:none"/><g style="display:none"><path fill="none" class="secondary"/><path class="secondary"/></g><path class="secondary" style="mix-blend-mode:multiply;display:none"/><path class="secondary" style="mix-blend-mode:multiply;display:none"/><path fill="none" class="primary" style="display:none"/><path fill="none" class="primary" style="display:none"/><path fill="none" class="primary" style="display:none"/><path fill="none" class="primary" style="display:none"/><path fill="none" class="primary" style="display:none"/><path fill="none" class="primary" style="display:none"/><path fill="none" class="primary" style="display:none"/><path fill="none" class="primary" style="display:none"/><path fill="none" class="primary" style="display:none"/><path fill="none" class="primary" style="display:none"/><path fill="none" class="primary" style="display:none"/><path fill="none" class="primary" style="display:none"/><path fill="none" class="primary" style="display:none"/><path fill="none" class="primary" style="display:none"/><path fill="none" class="primary" style="display:none"/></g><g clip-path="url(#k)" style="display:none"><g style="display:none"><path fill="none" class="tertiary"/><path class="tertiary"/></g><g mask="url(#l)" style="mix-blend-mode:multiply;display:none"><path class="tertiary"/></g><g style="display:none"><path fill="none" class="secondary"/><path class="secondary"/></g><g style="display:none"><path fill="none" class="secondary"/><path class="secondary"/></g><g style="display:none"><path fill="none" class="quaternary"/><path class="quaternary"/></g><g style="display:none"><path fill="none" class="secondary"/><path class="secondary"/><g style="mix-blend-mode:multiply"><path fill="none" class="secondary"/><path class="secondary"/></g><path class="secondary"/><path class="secondary" style="mix-blend-mode:multiply"/><path class="secondary"/></g><g style="display:none"><path class="secondary"/><path class="secondary" style="mix-blend-mode:multiply"/><path class="secondary"/></g><g fill="none" style="mix-blend-mode:multiply;display:none"><path class="secondary"/><path class="secondary"/></g><g style="display:none"><g fill="none" style="mix-blend-mode:multiply"><path class="secondary"/><path class="secondary" style="mix-blend-mode:multiply"/></g></g><g style="display:none"><path fill="none" class="secondary"/><path class="secondary"/></g><path class="secondary" style="mix-blend-mode:multiply;display:none"/><g style="display:none"><path fill="none" class="quaternary"/><path class="quaternary"/></g><g style="display:none"><path fill="none" class="secondary"/><path class="secondary"/></g><path class="secondary" style="mix-blend-mode:multiply;display:none"/><path class="quinary" style="display:none"/><path fill="none" class="primary" style="display:none"/><path fill="none" class="primary" style="display:none"/><path fill="none" class="primary" style="display:none"/><path fill="none" class="primary" style="display:none"/><path fill="none" class="primary" style="display:none"/><path fill="none" class="primary" style="display:none"/><path fill="none" class="primary" style="display:none"/><g fill="none" style="display:none"><path class="primary"/><path class="primary"/></g></g><g clip-path="url(#m)" style="display:block"><g style="display:block"><path fill="none" stroke="#F14B00" stroke-linecap="round" stroke-linejoin="round" stroke-width="4" d="M191.004 360.97c-.032 37.971-.026 48.993-.026 48.993l-25.992-16.013-26.008 15.986s-.004-11.005.026-49.005" class="tertiary"/><path fill="#F14B00" d="M191.004 360.97c-.032 37.971-.026 48.993-.026 48.993l-25.992-16.013-26.008 15.986s-.004-11.005.026-49.005" class="tertiary"/></g><g opacity=".5" style="mix-blend-mode:multiply;display:block"><g mask="url(#n)" opacity="1"><path fill="#F14B00" d="m165.426 347.174-35.75-.028-.056 74.552s35.81 1.04 35.847.966c-.106-.044-.04-75.49-.04-75.49z" class="tertiary"/><path fill="none" d="m165.426 347.174-35.75-.028-.056 74.552s35.81 1.04 35.847.966c-.106-.044-.04-75.49-.04-75.49z" class="tertiary"/></g></g><g style="display:block"><path fill="none" stroke="#4AB3FC" stroke-linecap="round" stroke-linejoin="round" stroke-width="4" d="m337.671 87.311-.214 273.802s-49.45-.064-115.45-.12c-66.001-.057-100.336-.076-100.336-.076-7.951-.006-15.064-3.15-20.29-8.386-5.123-5.13-8.361-12.247-8.355-20.198l.212-273.772m244.43 28.885s-55.45-.07-119.45-.121l-96.335-.075c-15.798-.012-28.658-12.89-28.645-28.689.012-15.798 12.89-28.656 28.689-28.644 0 0 27.336.019 96.33.075 69 .056 119.456.122 119.456.122l-.044 57.332z" class="quaternary"/><path fill="#4AB3FC" d="m337.671 87.311-.214 273.802s-49.45-.064-115.45-.12c-66.001-.057-100.336-.076-100.336-.076-7.951-.006-15.064-3.15-20.29-8.386-5.123-5.13-8.361-12.247-8.355-20.198l.212-273.772m244.43 28.885s-55.45-.07-119.45-.121l-96.335-.075c-15.798-.012-28.658-12.89-28.645-28.689.012-15.798 12.89-28.656 28.689-28.644 0 0 27.336.019 96.33.075 69 .056 119.456.122 119.456.122l-.044 57.332z" class="quaternary"/></g><g opacity=".5" style="mix-blend-mode:multiply;display:block"><path fill="#4AB3FC" d="m91.178 54.388-.214 277.07c-.007 8.773 3.566 16.626 9.217 22.287 5.768 5.776 13.614 9.245 22.387 9.252l22.067.017c-8.773-.007-16.62-3.476-22.387-9.252-5.651-5.66-9.224-13.514-9.217-22.287l.214-277.07-22.067-.017z" class="quaternary" opacity="1"/></g><path fill="#F8C8C0" d="M70.012-24.924s-23.673-.045-68.687-.058C-44.993-24.995-70-25-70-25v50s24.992.005 71.31.018c45.014.013 68.663.054 68.663.054l.039-49.996z" class="quinary" style="display:block" transform="rotate(.044 -213205.128 278253.358)"/><g style="display:block"><path fill="none" stroke="#EBE6EE" stroke-linecap="round" stroke-linejoin="round" stroke-width="4" d="M337.66 87.513s-55.441-.137-119.441-.188c-63.998-.051-96.336-.075-96.336-.075-15.798-.012-28.658-12.89-28.645-28.689.012-15.798 12.89-28.656 28.689-28.644 0 0 27.339.017 96.328.075 69 .059 119.45.188 119.45.188l-.045 57.333z" class="secondary"/><path fill="#EBE6EE" d="M337.66 87.513s-55.441-.137-119.441-.188c-63.998-.051-96.336-.075-96.336-.075-15.798-.012-28.658-12.89-28.645-28.689.012-15.798 12.89-28.656 28.689-28.644 0 0 27.339.017 96.328.075 69 .059 119.45.188 119.45.188l-.045 57.333z" class="secondary"/><g opacity=".5" style="mix-blend-mode:multiply"><path fill="none" stroke="#EBE6EE" stroke-linecap="round" stroke-linejoin="round" stroke-width="4" d="M337.66 87.513s-55.441-.137-119.441-.188c-63.998-.051-96.336-.075-96.336-.075-15.798-.012-28.658-12.89-28.645-28.689.012-15.798 12.89-28.656 28.689-28.644 0 0 27.339.017 96.328.075 69 .059 119.45.188 119.45.188l-.045 57.333z" class="secondary"/><path fill="#EBE6EE" d="M337.66 87.513s-55.441-.137-119.441-.188c-63.998-.051-96.336-.075-96.336-.075-15.798-.012-28.658-12.89-28.645-28.689.012-15.798 12.89-28.656 28.689-28.644 0 0 27.339.017 96.328.075 69 .059 119.45.188 119.45.188l-.045 57.333z" class="secondary"/></g><g fill="#EBE6EE"><path d="m340.264 77.532-122.649-.095-95.367-.074c-10.269-.008-18.626-8.379-18.618-18.648.008-10.268 8.378-18.626 18.647-18.618l95.367.074 122.649.095-.029 37.266z" class="secondary"/><path fill-opacity=".5" d="M122.23-108.167h-335.409c-15.798 0-28.666-12.869-28.666-28.667 0-15.798 12.868-28.666 28.666-28.666H122.23v57.333z" class="secondary" style="mix-blend-mode:multiply" transform="matrix(.65 0 0 .65 260.76 147.78)"/></g><path fill="#EBE6EE" d="m340.28 77.532-109.44-.085-85.097-.065c-9.163-.008-16.62-8.378-16.612-18.647.008-10.269 7.478-18.627 16.64-18.62l85.098.066c40.02.03 109.44.085 109.44.085l-.029 37.266z" class="secondary"/></g><g opacity=".5" style="mix-blend-mode:multiply;display:block"><g fill="none" stroke="#EBE6EE" stroke-width="7" opacity="1"><path stroke-dasharray="81 272" stroke-linecap="round" d="M167.238 58.702c57.706.022 172.988.218 172.988.218" class="secondary"/><path d="M167.238 58.702c57.706.022 172.988.218 172.988.218" class="secondary"/></g></g><path fill="none" stroke="#121330" stroke-linecap="round" stroke-linejoin="round" stroke-width="7" d="M26-24.5c-.003 37.97.012 48.993.012 48.993L.008 8.499l-25.996 16.006S-26 13.5-26-24.5" class="primary" style="display:block" transform="rotate(.044 -498261.117 213498.468)"/><path fill="none" stroke="#121330" stroke-linecap="round" stroke-linejoin="round" stroke-width="7" d="M122.223-108.243V165.53s-49.45-.026-115.45-.031c-66-.006-100.336.002-100.336.002-7.951 0-15.066-3.139-20.297-8.37-5.126-5.126-8.37-12.241-8.37-20.192v-273.772m244.453 28.696s-55.451-.028-119.451-.029h-96.335c-15.798 0-28.667-12.869-28.667-28.667 0-15.798 12.869-28.666 28.667-28.666 0 0 27.337-.002 96.33 0 69 .003 119.456.03 119.456.03v57.332z" class="primary" style="display:block" transform="rotate(.044 -252638.227 278535.41)"/><path fill="none" stroke="#121330" stroke-linecap="round" stroke-linejoin="round" stroke-width="7" d="m170.912 304.455 45.776.04c21.744.02 42.49.045 42.49.045m-114.103-35.105s32 .026 70.058.06c35.943.031 69.943.07 69.943.07m.101-129.499s-23.667-.03-68.681-.07c-46.319-.04-71.321-.06-71.321-.06l-.039 50s24.997.02 71.316.06c45.014.04 68.678.07 68.678.07l.047-50z" class="primary" style="display:block"/></g><g clip-path="url(#o)" style="display:none"><g style="display:none"><path fill="none" class="tertiary"/><path class="tertiary"/></g><g mask="url(#p)" style="mix-blend-mode:multiply;display:none"><path class="tertiary"/><path fill="none" class="tertiary"/></g><g style="display:none"><path fill="none" class="quaternary"/><path class="quaternary"/></g><path class="quaternary" style="mix-blend-mode:multiply;display:none"/><g style="display:none"><path fill="none" class="secondary"/><path class="secondary"/><g style="mix-blend-mode:multiply"><path fill="none" class="secondary"/><path class="secondary"/></g><path class="secondary"/><path class="secondary" style="mix-blend-mode:multiply"/><path class="secondary"/></g><g fill="none" style="mix-blend-mode:multiply;display:none"><path class="secondary"/><path class="secondary"/></g><path class="quinary" style="display:none"/><path fill="none" class="primary" style="display:none"/><path fill="none" class="primary" style="display:none"/><g fill="none" style="display:none"><path class="primary"/><path class="primary"/></g></g></g></svg>