<svg width="24" height="24" viewBox="0 0 24 24" fill="none" xmlns="http://www.w3.org/2000/svg">
<g clip-path="url(#clip0_4968_10239)">
<path d="M19.5268 22.6657H4.4735C4.32466 22.6665 4.17712 22.6381 4.03928 22.5819C3.90144 22.5258 3.77601 22.4431 3.67015 22.3384C3.56429 22.2338 3.48008 22.1094 3.42231 21.9722C3.36455 21.835 3.33437 21.6878 3.3335 21.539V4.45899C3.33745 4.29408 3.37634 4.13188 3.44759 3.98309C3.51883 3.83431 3.62082 3.70233 3.74683 3.59586C3.87283 3.48938 4.01998 3.41084 4.17856 3.36542C4.33715 3.31999 4.50357 3.30871 4.66683 3.33233H6.00016V4.66566H4.66683V21.3323H19.3335V4.66566H18.0002V3.33233H19.5002C19.6512 3.32788 19.8016 3.35369 19.9426 3.40823C20.0835 3.46277 20.2121 3.54495 20.3208 3.64993C20.4295 3.75491 20.5161 3.88056 20.5755 4.01951C20.635 4.15845 20.666 4.30788 20.6668 4.45899V21.539C20.666 21.6878 20.6358 21.835 20.578 21.9722C20.5203 22.1094 20.436 22.2338 20.3302 22.3384C20.2243 22.4431 20.0989 22.5258 19.961 22.5819C19.8232 22.6381 19.6757 22.6665 19.5268 22.6657Z" fill="white"/>
<path d="M11.1067 17.1714L7.53336 13.5981C7.42498 13.4698 7.36902 13.3053 7.37667 13.1375C7.38431 12.9697 7.455 12.811 7.57459 12.6931C7.69419 12.5752 7.85388 12.5068 8.02175 12.5015C8.18961 12.4963 8.35328 12.5545 8.48003 12.6647L11.1067 15.2914L16.8667 9.5314C16.9942 9.42218 17.1583 9.36511 17.3261 9.37159C17.4938 9.37807 17.653 9.44763 17.7717 9.56636C17.8905 9.68509 17.96 9.84425 17.9665 10.012C17.973 10.1798 17.9159 10.3439 17.8067 10.4714L11.1067 17.1714Z" fill="white"/>
<path d="M17.3332 7.33335H6.6665V4.88669C6.66826 4.47526 6.83248 4.08118 7.1234 3.79025C7.41433 3.49933 7.80841 3.33511 8.21984 3.33335H9.41317C9.56004 2.75974 9.89364 2.25133 10.3614 1.88826C10.8291 1.52519 11.4044 1.32812 11.9965 1.32812C12.5886 1.32812 13.1639 1.52519 13.6316 1.88826C14.0994 2.25133 14.433 2.75974 14.5798 3.33335H15.7732C16.1858 3.33335 16.5815 3.49679 16.8739 3.78791C17.1663 4.07902 17.3314 4.47411 17.3332 4.88669V7.33335ZM7.99984 6.00002H15.9998V4.88669C15.9998 4.82834 15.9767 4.77238 15.9354 4.73112C15.8941 4.68987 15.8382 4.66669 15.7798 4.66669H13.3332V4.00002C13.3332 3.6464 13.1927 3.30726 12.9426 3.05721C12.6926 2.80716 12.3535 2.66669 11.9998 2.66669C11.6462 2.66669 11.3071 2.80716 11.057 3.05721C10.807 3.30726 10.6665 3.6464 10.6665 4.00002V4.66669H8.21984C8.19095 4.66669 8.16234 4.67238 8.13565 4.68343C8.10896 4.69449 8.0847 4.71069 8.06427 4.73112C8.04384 4.75155 8.02764 4.7758 8.01658 4.8025C8.00553 4.82919 7.99984 4.8578 7.99984 4.88669V6.00002Z" fill="white"/>
</g>
<defs>
<clipPath id="clip0_4968_10239">
<rect width="24" height="24" fill="white"/>
</clipPath>
</defs>
</svg>
