<svg width="24" height="24" viewBox="0 0 24 24" fill="none" xmlns="http://www.w3.org/2000/svg">
<g clip-path="url(#clip0_4931_11338)">
<path d="M12 0C18.6276 0 24 5.3724 24 12C24 18.6276 18.6276 24 12 24C5.3724 24 0 18.6276 0 12C0 5.3724 5.3724 0 12 0ZM12 1.674C9.26137 1.674 6.63492 2.76191 4.69842 4.69842C2.76191 6.63492 1.674 9.26137 1.674 12C1.674 14.7386 2.76191 17.3651 4.69842 19.3016C6.63492 21.2381 9.26137 22.326 12 22.326C14.7386 22.326 17.3651 21.2381 19.3016 19.3016C21.2381 17.3651 22.326 14.7386 22.326 12C22.326 9.26137 21.2381 6.63492 19.3016 4.69842C17.3651 2.76191 14.7386 1.674 12 1.674ZM11.826 8.652C12.288 8.652 12.6624 9.0276 12.6624 9.4896V18.5592C12.6542 18.7757 12.5624 18.9806 12.4064 19.1309C12.2503 19.2812 12.0421 19.3651 11.8254 19.3651C11.6087 19.3651 11.4005 19.2812 11.2444 19.1309C11.0884 18.9806 10.9966 18.7757 10.9884 18.5592V9.4884C10.9884 9.0264 11.3628 8.652 11.826 8.652ZM11.8596 5.3028C12.1556 5.3028 12.4394 5.42038 12.6487 5.62967C12.858 5.83896 12.9756 6.12282 12.9756 6.4188C12.9756 6.71478 12.858 6.99864 12.6487 7.20793C12.4394 7.41722 12.1556 7.5348 11.8596 7.5348C11.5636 7.5348 11.2798 7.41722 11.0705 7.20793C10.8612 6.99864 10.7436 6.71478 10.7436 6.4188C10.7436 6.12282 10.8612 5.83896 11.0705 5.62967C11.2798 5.42038 11.5636 5.3028 11.8596 5.3028Z" fill="#F7870E"/>
</g>
<defs>
<clipPath id="clip0_4931_11338">
<rect width="24" height="24" fill="white"/>
</clipPath>
</defs>
</svg>
