<svg width="43" height="43" viewBox="0 0 43 43" fill="none" xmlns="http://www.w3.org/2000/svg">
<circle cx="21.3246" cy="21.2855" r="21.223" fill="#F4F7FE"/>
<path opacity="0.35" d="M27.0294 30.1755H14.902C13.2274 30.1755 11.8701 28.8183 11.8701 27.1437V15.0162C11.8701 13.3416 13.2274 11.9844 14.902 11.9844H27.0294C28.704 11.9844 30.0613 13.3416 30.0613 15.0162V27.1437C30.0613 28.8183 28.704 30.1755 27.0294 30.1755Z" fill="#717171"/>
<path d="M30.0613 24.1172V27.149C30.0613 28.8236 28.704 30.1809 27.0294 30.1809H14.902C13.2274 30.1809 11.8701 28.8236 11.8701 27.149V24.1172H16.2582C17.0677 24.1172 17.857 24.5528 18.1713 25.2986C18.6312 26.387 19.7075 27.149 20.9657 27.149C22.2239 27.149 23.3002 26.387 23.7601 25.2986C24.0744 24.5528 24.8626 24.1172 25.6732 24.1172H30.0613Z" fill="#717171"/>
</svg>
