<svg width="44" height="43" viewBox="0 0 44 43" fill="none" xmlns="http://www.w3.org/2000/svg">
<circle cx="22.1205" cy="21.2855" r="21.223" fill="#F4F7FE"/>
<path opacity="0.35" d="M20.2465 10.9766C15.5027 10.9766 11.6562 14.823 11.6562 19.5668C11.6562 20.9342 11.9837 22.2217 12.5527 23.3698L11.6896 26.8221C11.4925 27.6083 12.205 28.3208 12.9913 28.1237L16.4436 27.2607C17.5916 27.8297 18.8791 28.1571 20.2465 28.1571C24.9904 28.1571 28.8368 24.3107 28.8368 19.5668C28.8368 14.823 24.9904 10.9766 20.2465 10.9766Z" fill="#717171"/>
<path d="M30.5516 24.7109L31.8361 29.8469C32.0332 30.6332 31.3207 31.3457 30.5344 31.1486L25.3984 29.8641L30.5516 24.7109Z" fill="#717171"/>
<path d="M27.6382 15.2031C28.3952 16.4816 28.8368 17.9692 28.8368 19.5629C28.8368 24.3068 24.9904 28.1532 20.2465 28.1532C18.6528 28.1532 17.1652 27.7116 15.8867 26.9546C17.3814 29.4842 20.1283 31.1851 23.2784 31.1851C28.0222 31.1851 31.8687 27.3386 31.8687 22.5948C31.8687 19.4447 30.1678 16.6978 27.6382 15.2031Z" fill="#717171"/>
</svg>
