<svg width="19" height="20" viewBox="0 0 19 20" fill="none" xmlns="http://www.w3.org/2000/svg">
<circle cx="2.29508" cy="2.29508" r="2.29508" transform="matrix(-1 0 0 1 11.4766 7.75781)" stroke="#717171" stroke-width="1.14754"/>
<path d="M12.6244 4.64961L12.3375 5.14651L12.3375 5.14651L12.6244 4.64961ZM12.6244 15.455L12.3375 14.9581L12.3375 14.9581L12.6244 15.455ZM5.73915 15.455L6.02604 14.9581L6.02604 14.9581L5.73915 15.455ZM5.73915 4.64961L6.02604 5.14651L6.02604 5.14651L5.73915 4.64961ZM6.82759 3.17953L7.38656 3.30903L6.82759 3.17953ZM2.22825 8.28045L1.86339 8.72327L2.22825 8.28045ZM1.96039 7.53024L1.41868 7.34113L1.96039 7.53024ZM4.06704 15.2082L3.93579 14.6497L4.06704 15.2082ZM3.37222 15.0265L2.93644 15.3997L3.37222 15.0265ZM7.2988 17.4686L7.15777 18.0248L7.2988 17.4686ZM6.82771 16.9256L6.26871 17.0549L6.82771 16.9256ZM11.5356 16.9268L12.0946 17.0559L11.5356 16.9268ZM11.0637 17.4705L10.9233 16.9142L11.0637 17.4705ZM14.9966 15.028L15.4323 15.4014L14.9966 15.028ZM14.3006 15.2092L14.1684 15.7675L14.3006 15.2092ZM16.3099 7.26077L15.7758 7.47024L16.3099 7.26077ZM16.0234 8.05278L16.3731 8.50764L16.0234 8.05278ZM2.22825 11.8248L2.59311 12.2676L2.22825 11.8248ZM14.9961 5.07664L14.5605 5.45003L14.9961 5.07664ZM4.06737 4.89643L3.9362 5.455L4.06737 4.89643ZM16.1038 11.753L15.7741 12.2226L16.1038 11.753ZM11.5357 3.1783L12.0947 3.04911L11.5357 3.1783ZM11.0639 2.63476L11.2044 2.07845L11.0639 2.63476ZM10.9766 3.30749C11.1492 4.05437 11.6203 4.73241 12.3375 5.14651L12.9113 4.15271C12.4809 3.90423 12.1987 3.49896 12.0947 3.04911L10.9766 3.30749ZM12.3375 5.14651C12.997 5.52726 13.7461 5.6163 14.4325 5.45379L14.1681 4.33712C13.7552 4.43488 13.3073 4.38138 12.9113 4.15271L12.3375 5.14651ZM16.8441 7.05129C16.5054 6.18749 16.025 5.39532 15.4318 4.70324L14.5605 5.45003C15.0714 6.04612 15.4846 6.72779 15.7758 7.47024L16.8441 7.05129ZM15.6998 9.87331C15.6998 9.31748 15.9626 8.82328 16.3731 8.50764L15.6736 7.59792C14.9928 8.12142 14.5522 8.94604 14.5522 9.87331H15.6998ZM16.4335 11.2834C15.9886 10.971 15.6998 10.4559 15.6998 9.87331H14.5522C14.5522 10.8455 15.0364 11.7046 15.7741 12.2226L16.4335 11.2834ZM15.4323 15.4014C16.1014 14.6205 16.627 13.7123 16.9676 12.7176L15.8819 12.3459C15.5893 13.2007 15.1373 13.9821 14.5609 14.6547L15.4323 15.4014ZM12.9113 15.9519C13.3074 15.7232 13.7554 15.6697 14.1684 15.7675L14.4329 14.6509C13.7464 14.4883 12.9971 14.5773 12.3375 14.9581L12.9113 15.9519ZM12.0946 17.0559C12.1985 16.6059 12.4808 16.2004 12.9113 15.9519L12.3375 14.9581C11.6201 15.3723 11.149 16.0506 10.9765 16.7977L12.0946 17.0559ZM9.18509 18.2767C9.88104 18.2767 10.5576 18.1901 11.2042 18.0268L10.9233 16.9142C10.3678 17.0545 9.78555 17.1291 9.18509 17.1291V18.2767ZM7.15777 18.0248C7.80686 18.1894 8.48619 18.2767 9.18509 18.2767V17.1291C8.58208 17.1291 7.99748 17.0538 7.43983 16.9124L7.15777 18.0248ZM5.45227 15.9519C5.88247 16.2003 6.16465 16.6053 6.26871 17.0549L7.3867 16.7962C7.21393 16.0497 6.74299 15.372 6.02604 14.9581L5.45227 15.9519ZM4.19829 15.7668C4.6104 15.67 5.05711 15.7237 5.45227 15.9519L6.02604 14.9581C5.36808 14.5782 4.62088 14.4887 3.93579 14.6497L4.19829 15.7668ZM1.41868 12.7641C1.75935 13.7399 2.27843 14.6315 2.93644 15.3997L3.808 14.6533C3.24126 13.9915 2.79485 13.2244 2.5021 12.3859L1.41868 12.7641ZM2.4911 10.0526C2.4911 10.5876 2.24768 11.0653 1.86339 11.382L2.59311 12.2676C3.23061 11.7423 3.63864 10.9449 3.63864 10.0526H2.4911ZM1.86339 8.72327C2.24768 9.0399 2.4911 9.51759 2.4911 10.0526H3.63864C3.63864 9.16034 3.23061 8.36289 2.59311 7.83763L1.86339 8.72327ZM2.93697 4.70489C2.27871 5.4733 1.75944 6.36504 1.41868 7.34113L2.5021 7.71935C2.79493 6.88056 3.2415 6.11329 3.80846 5.45145L2.93697 4.70489ZM5.45227 4.15271C5.05719 4.38081 4.61058 4.43461 4.19854 4.33785L3.9362 5.455C4.62118 5.61585 5.36821 5.52631 6.02604 5.14651L5.45227 4.15271ZM6.26863 3.05003C6.16449 3.49952 5.88235 3.9044 5.45227 4.15271L6.02604 5.14651C6.74279 4.7327 7.21367 4.0553 7.38656 3.30903L6.26863 3.05003ZM9.18509 1.82857C8.48613 1.82857 7.80674 1.9159 7.1576 2.08052L7.43969 3.19285C7.99738 3.05142 8.58203 2.97611 9.18509 2.97611V1.82857ZM11.2044 2.07845C10.5577 1.91516 9.8811 1.82857 9.18509 1.82857V2.97611C9.7856 2.97611 10.3679 3.05079 10.9234 3.19107L11.2044 2.07845ZM7.38656 3.30903C7.3985 3.25747 7.41872 3.2211 7.4344 3.20203C7.44787 3.18564 7.45027 3.19017 7.43969 3.19285L7.1576 2.08052C6.62933 2.21449 6.35651 2.67071 6.26863 3.05003L7.38656 3.30903ZM2.59311 7.83763C2.54653 7.79925 2.51946 7.75773 2.5086 7.72996C2.49946 7.70661 2.50619 7.70765 2.5021 7.71935L1.41868 7.34113C1.21518 7.92406 1.53048 8.44898 1.86339 8.72327L2.59311 7.83763ZM3.93579 14.6497C3.88438 14.6618 3.8429 14.6597 3.81886 14.6541C3.79818 14.6493 3.80102 14.6451 3.808 14.6533L2.93644 15.3997C3.29037 15.813 3.81931 15.8559 4.19829 15.7668L3.93579 14.6497ZM7.43983 16.9124C7.45042 16.9151 7.44801 16.9196 7.43454 16.9032C7.41886 16.8842 7.39864 16.8478 7.3867 16.7962L6.26871 17.0549C6.35653 17.4344 6.62935 17.8908 7.15777 18.0248L7.43983 16.9124ZM10.9765 16.7977C10.9646 16.8494 10.9443 16.8859 10.9286 16.905C10.9151 16.9214 10.9127 16.9169 10.9233 16.9142L11.2042 18.0268C11.7336 17.8932 12.0069 17.4359 12.0946 17.0559L10.9765 16.7977ZM14.5609 14.6547C14.5679 14.6465 14.5708 14.6507 14.5501 14.6555C14.526 14.6611 14.4844 14.6631 14.4329 14.6509L14.1684 15.7675C14.5477 15.8574 15.0777 15.8152 15.4323 15.4014L14.5609 14.6547ZM15.7758 7.47024C15.7709 7.45779 15.7788 7.45609 15.7685 7.48192C15.7561 7.51294 15.7252 7.5583 15.6736 7.59792L16.3731 8.50764C16.734 8.23015 17.0858 7.66757 16.8441 7.05129L15.7758 7.47024ZM2.5021 12.3859C2.50619 12.3976 2.49946 12.3986 2.50859 12.3753C2.51946 12.3475 2.54653 12.306 2.59311 12.2676L1.86339 11.382C1.53048 11.6563 1.21518 12.1812 1.41868 12.7641L2.5021 12.3859ZM14.4325 5.45379C14.484 5.4416 14.5255 5.44357 14.5496 5.44916C14.5703 5.45398 14.5675 5.45819 14.5605 5.45003L15.4318 4.70324C15.0772 4.28955 14.5474 4.24732 14.1681 4.33712L14.4325 5.45379ZM3.80846 5.45145C3.80148 5.4596 3.79864 5.4554 3.81931 5.45057C3.84335 5.44496 3.88481 5.44293 3.9362 5.455L4.19854 4.33785C3.81963 4.24887 3.29085 4.29179 2.93697 4.70489L3.80846 5.45145ZM15.7741 12.2226C15.8274 12.26 15.8603 12.304 15.8741 12.3345C15.8855 12.3599 15.8776 12.3586 15.8819 12.3459L16.9676 12.7176C17.182 12.0913 16.8059 11.5448 16.4335 11.2834L15.7741 12.2226ZM12.0947 3.04911C12.0069 2.6692 11.7337 2.21209 11.2044 2.07845L10.9234 3.19107C10.9128 3.18839 10.9152 3.18384 10.9287 3.20026C10.9444 3.21938 10.9647 3.25583 10.9766 3.30749L12.0947 3.04911Z" fill="#717171"/>
</svg>
