<svg width="21" height="21" viewBox="0 0 21 21" fill="none" xmlns="http://www.w3.org/2000/svg">
<path d="M16.7225 10.7626L16.5625 12.2533L17.8652 12.3932L18.0261 10.9034L16.7225 10.7626ZM11.4443 17.7065H9.54174V19.0179H11.4443V17.7065ZM4.42349 12.2533L4.26349 10.7626L2.95988 10.9025L3.11988 12.3932L4.42349 12.2533ZM8.23289 9.88044L9.79792 7.07563L8.65256 6.43651L7.08753 9.24219L8.23289 9.88044ZM11.1881 7.07563L12.7531 9.88044L13.8985 9.24219L12.3334 6.43651L11.1881 7.07563ZM12.7531 9.88044C12.8947 10.134 13.0241 10.3701 13.1509 10.5493C13.2812 10.7338 13.4569 10.9384 13.7288 11.0581L14.2578 9.85771C14.3068 9.8787 14.298 9.90143 14.2237 9.79564C14.1071 9.61609 13.9986 9.43143 13.8985 9.24219L12.7531 9.88044ZM14.813 9.36897C14.5874 9.59454 14.4528 9.72744 14.347 9.81225C14.2464 9.89356 14.2447 9.86995 14.2972 9.86296L14.4764 11.1622C14.7702 11.1211 14.9966 10.9733 15.1723 10.8317C15.3428 10.6936 15.5326 10.503 15.7389 10.2984L14.813 9.36897ZM13.7288 11.0581C13.964 11.1613 14.2228 11.1972 14.4764 11.1622L14.2972 9.86296C14.2838 9.8649 14.2702 9.86308 14.2578 9.85771L13.7288 11.0581ZM5.24797 10.2975C5.45344 10.503 5.64316 10.6936 5.81365 10.8308C5.98939 10.9742 6.21584 11.1211 6.50961 11.1622L6.68885 9.86296C6.7413 9.86995 6.73956 9.89356 6.63901 9.81225C6.47717 9.67148 6.32168 9.52357 6.173 9.36897L5.24797 10.2975ZM7.08753 9.24219C6.98712 9.43144 6.87831 9.6161 6.76141 9.79564C6.68797 9.90055 6.67923 9.8787 6.72819 9.85684L7.25628 11.0581C7.52732 10.9384 7.70568 10.7347 7.83508 10.5493C7.96098 10.3692 8.09125 10.134 8.23289 9.88044L7.08753 9.24219ZM6.50961 11.1622C6.76316 11.1972 7.02196 11.1622 7.25628 11.0581L6.72819 9.85684C6.71582 9.86221 6.70219 9.8649 6.68885 9.86296L6.50961 11.1622ZM9.54174 17.7065C8.28447 17.7065 7.40404 17.7056 6.73256 17.619C6.07857 17.536 5.70961 17.3803 5.43245 17.1329L4.55814 18.1104C5.10896 18.6035 5.77344 18.8186 6.56557 18.92C7.34021 19.0188 8.31945 19.0179 9.54174 19.0179V17.7065ZM3.11988 12.3932C3.24928 13.598 3.35245 14.7775 3.52732 15.734C3.61562 16.2166 3.72753 16.6713 3.88141 17.0656C4.03442 17.4573 4.246 17.8306 4.55814 18.1104L5.43245 17.1329C5.33103 17.042 5.21562 16.8759 5.10283 16.5882C4.97414 16.2344 4.87872 15.8694 4.81781 15.4979C4.65344 14.6044 4.55726 13.5045 4.42349 12.2533L3.11988 12.3932ZM16.5625 12.2533C16.4279 13.5045 16.3317 14.6044 16.1691 15.4971C16.0878 15.9403 15.9942 16.3032 15.8832 16.5882C15.7704 16.8759 15.655 17.0428 15.5535 17.1329L16.4279 18.1104C16.74 17.8306 16.9516 17.4573 17.1046 17.0656C17.2585 16.6713 17.3704 16.2166 17.4587 15.734C17.6335 14.7775 17.7367 13.5972 17.8661 12.3932L16.5625 12.2533ZM11.4443 19.0179C12.6666 19.0179 13.6458 19.0188 14.4204 18.92C15.2134 18.8186 15.877 18.6035 16.4279 18.1104L15.5535 17.1329C15.2764 17.3803 14.9074 17.5351 14.2534 17.619C13.582 17.7056 12.7015 17.7065 11.4443 17.7065V19.0179ZM9.4001 4.37312C9.4001 3.76984 9.88972 3.28023 10.493 3.28023V1.96875C9.85532 1.96875 9.24376 2.22207 8.79285 2.67297C8.34194 3.12388 8.08863 3.73544 8.08863 4.37312H9.4001ZM10.493 3.28023C11.0963 3.28023 11.5859 3.76984 11.5859 4.37312H12.8974C12.8974 3.73544 12.6441 3.12388 12.1931 2.67297C11.7422 2.22207 11.1307 1.96875 10.493 1.96875V3.28023ZM18.1433 7.87039C18.1433 8.0443 18.0742 8.21109 17.9512 8.33407C17.8282 8.45704 17.6614 8.52613 17.4875 8.52613V9.8376C18.0093 9.8376 18.5096 9.63034 18.8786 9.26142C19.2475 8.8925 19.4547 8.39213 19.4547 7.87039H18.1433ZM16.8318 7.87039C16.8318 7.69648 16.9009 7.52969 17.0239 7.40671C17.1468 7.28374 17.3136 7.21465 17.4875 7.21465V5.90318C16.9658 5.90318 16.4654 6.11044 16.0965 6.47936C15.7276 6.84828 15.5203 7.34865 15.5203 7.87039H16.8318ZM17.4875 7.21465C17.6614 7.21465 17.8282 7.28374 17.9512 7.40671C18.0742 7.52969 18.1433 7.69648 18.1433 7.87039H19.4547C19.4547 7.34865 19.2475 6.84828 18.8786 6.47936C18.5096 6.11044 18.0093 5.90318 17.4875 5.90318V7.21465ZM3.49846 8.52613C3.32455 8.52613 3.15776 8.45704 3.03479 8.33407C2.91181 8.21109 2.84273 8.0443 2.84273 7.87039H1.53125C1.53125 8.39213 1.73851 8.8925 2.10743 9.26142C2.47636 9.63034 2.97673 9.8376 3.49846 9.8376V8.52613ZM2.84273 7.87039C2.84273 7.69648 2.91181 7.52969 3.03479 7.40671C3.15776 7.28374 3.32455 7.21465 3.49846 7.21465V5.90318C2.97673 5.90318 2.47636 6.11044 2.10743 6.47936C1.73851 6.84828 1.53125 7.34865 1.53125 7.87039H2.84273ZM3.49846 7.21465C3.67238 7.21465 3.83917 7.28374 3.96214 7.40671C4.08511 7.52969 4.1542 7.69648 4.1542 7.87039H5.46568C5.46568 7.34865 5.25842 6.84828 4.88949 6.47936C4.52057 6.11044 4.0202 5.90318 3.49846 5.90318V7.21465ZM17.4875 8.52613C17.4849 8.52614 17.4823 8.52614 17.4797 8.52613L17.4648 9.8376H17.4875V8.52613ZM18.0261 10.9034C18.069 10.51 18.1057 10.1663 18.1258 9.87957C18.1505 9.61838 18.1493 9.35539 18.1223 9.09443L16.8222 9.2693C16.8353 9.36547 16.8362 9.52285 16.8178 9.78689C16.8003 10.0439 16.7662 10.3613 16.7225 10.7626L18.0261 10.9034ZM17.4797 8.52613C17.3867 8.5252 17.295 8.50444 17.2107 8.46524C17.1265 8.42604 17.0515 8.36929 16.9909 8.2988L15.9986 9.15564C16.3535 9.56657 16.8781 9.83061 17.4648 9.8376L17.4797 8.52613ZM16.9909 8.2988C16.8878 8.17995 16.8313 8.02774 16.8318 7.87039H15.5203C15.5203 8.36088 15.7013 8.81115 15.9986 9.15564L16.9909 8.2988ZM15.7389 10.2984C16.3308 9.7082 16.636 9.41094 16.8388 9.28503L16.1507 8.16941C15.7835 8.39673 15.3428 8.84088 14.813 9.36897L15.7389 10.2984ZM4.1542 7.87039C4.15472 8.02774 4.09819 8.17995 3.99508 8.2988L4.98743 9.15564C5.28469 8.81115 5.46568 8.36088 5.46568 7.87039H4.1542ZM6.173 9.36897C5.64316 8.84088 5.20251 8.39585 4.83529 8.16941L4.14721 9.28503C4.35005 9.41094 4.65431 9.7082 5.2471 10.2984L6.173 9.36897ZM3.99508 8.2988C3.93448 8.36929 3.85953 8.42604 3.77525 8.46524C3.69096 8.50444 3.59928 8.5252 3.50633 8.52613L3.5212 9.8376C3.79996 9.83431 4.07484 9.77181 4.32762 9.65424C4.5804 9.53667 4.80531 9.36671 4.98743 9.15564L3.99508 8.2988ZM3.50633 8.52613C3.50371 8.52614 3.50109 8.52614 3.49846 8.52613V9.8376H3.5212L3.50633 8.52613ZM4.26349 10.7626C4.22612 10.438 4.19435 10.1127 4.16819 9.78689C4.15076 9.61487 4.1493 9.44159 4.16382 9.2693L2.86371 9.09443C2.83669 9.35539 2.83552 9.61838 2.86021 9.87957C2.88032 10.1663 2.91704 10.5091 2.95988 10.9025L4.26349 10.7626ZM11.5859 4.37312C11.5859 4.79717 11.3446 5.16613 10.9887 5.34799L11.5841 6.51607C11.9794 6.31477 12.3113 6.00805 12.5431 5.62985C12.7748 5.25164 12.8975 4.81669 12.8974 4.37312H11.5859ZM10.9887 5.34799C10.8401 5.42318 10.6731 5.46602 10.493 5.46602V6.77749C10.8726 6.77783 11.2469 6.68792 11.585 6.5152L10.9887 5.34799ZM12.3334 6.43651C12.1533 6.11301 11.9916 5.82187 11.8429 5.58405L10.7308 6.27913C10.8585 6.48372 11.0019 6.74339 11.1881 7.07563L12.3334 6.43651ZM10.493 5.46602C10.3129 5.46602 10.145 5.4223 9.99726 5.34799L9.40185 6.51607C9.72972 6.68307 10.1013 6.77749 10.493 6.77749V5.46602ZM9.99726 5.34799C9.81743 5.25646 9.66645 5.11693 9.56105 4.94486C9.45565 4.77279 9.39994 4.57491 9.4001 4.37312H8.08863C8.08871 4.81655 8.21141 5.25131 8.44317 5.62935C8.67493 6.00738 9.00672 6.31396 9.40185 6.5152L9.99726 5.34799ZM9.79792 7.07563C9.98327 6.74165 10.1275 6.48372 10.2552 6.28001L9.14305 5.58405C8.99442 5.82187 8.83267 6.11301 8.65256 6.43651L9.79792 7.07563Z" fill="#717171"/>
<path d="M4.375 15.3008H16.6154" stroke="#717171" stroke-width="1.31148" stroke-linecap="round"/>
</svg>
